/* XPM */
static char *_41c4b8130ad4ab3b997b57f8ca11784ByYsEG93jh4bM1Ob[] = {
/* columns rows colors chars-per-pixel */
"50 50 36 1 ",
"  c gray44",
". c #767676",
"X c #797979",
"o c #7E7E7E",
"O c #818181",
"+ c gray53",
"@ c gray54",
"# c #8E8E8E",
"$ c gray57",
"% c #959595",
"& c gray60",
"* c #9F9F9F",
"= c gray63",
"- c #A7A7A7",
"; c gray67",
": c #ACACAC",
"> c gray69",
", c #B6B6B6",
"< c #B9B9B9",
"1 c gray",
"2 c #C3C3C3",
"3 c #C6C6C6",
"4 c gray79",
"5 c #CDCDCD",
"6 c gray82",
"7 c #D7D7D7",
"8 c #D8D8D8",
"9 c gray87",
"0 c gray89",
"q c #E7E7E7",
"w c #EAEAEA",
"e c #EEEEEE",
"r c #F3F3F3",
"t c #F6F6F6",
"y c gray98",
"u c white",
/* pixels */
"                                                  ",
" uuuuuuuuuuuuuuuuuuuuuuuuuuuuuuuuuuuuuuuuuuuuuuuu ",
" uuuuuuuuuuuuuuuuuuuuuuuuuuuuuuuuuuuuuuuuuuuuuuuu ",
" uuuuuuuuuuuuuuuuuuuuuuuuuuuuuuuuuuuuuuuuuuuuuuuu ",
" uuuuuuuuuuuuuuuuuuuuuuuuuuuuuuuuuuuuuuuuuuuuuuuu ",
" uuuuuuuuuuuuuuuuuuuuuuuuuuuuuuuuuuuuuuuuuuuuuuuu ",
" uuuuuuuuuuuuuuuuuuuuuuuuuuuuuuuuuuuuuuuuuuuuuuuu ",
" uuuuuuuuuuuuuuuuuuuuuuuuuuuuuuuuuuuuuuuuuuuuuuuu ",
" uuuuuuuuuuuuuuuuuuuuuuuuuuuuuuuuuuuuuuuuuuuuuuuu ",
" uuuuuuuuuuuuuuuuuuuuuuuuuuuuuuuuuuuuuuuuuuuuuuuu ",
" uuuuuuuuuuuuuuuuuuuuuuuuuuuuuuuuuuuuuuuuuuuuuuuu ",
" uuuuuuuuuuuuuuuuuuuuuuuuuuuuuuuuuuuuuuuuuuuuuuuu ",
" uuuuuuuuuuuuuuuuuuuuuuuuuuuuuuuuuuuuuuuuuuuuuuuu ",
" uuuuuuuuuuuuuuuuuuuuuuuuuuuuuuuuuuuuuuuuuuuuuuuu ",
" uuuuuuuuuuuuuuuuuuuuuuuuuuuuuuuuuuuuuuuuuuuuuuuu ",
" uuuuuuuuuuuuuuuuuuuuuuuuuuuuuuuuuuuuuuuuuuuuuuuu ",
" uuuuuuuuuuuuuuuuuuuuuuuuuuuuuuuuuuuuuuuuuuuuuuuu ",
" uuuuuuuuuuuuuuuuuuuuuuuuuuuuuuuuuuuuuuuuuuuuuuuu ",
" uuuuuuuuuuuuuuuuuuuuuuuuuuuuuuuuuuuuuuuuuuuuuuuu ",
" uuuuuuuuuuuuuuuuuuuuuuuuuuuuuuuuuuuuuuuuuuuuuuuu ",
" uuuuuuu3*9*O+=euuuw>%o+>tuuu1@o+-ruuq*OO$6uuuuuu ",
" uuuuuuu> +>3,XXruu9;12- =uu, -21=qurX+<3>>uuuuuu ",
" uuuuuuu> uuuuw ;uuuuuuu*Xuu@%uuuuuu6 0uuuuuuuuuu ",
" uuuuuuu> uuuuu$@uuuuuuu> uu*+tuuuuuq 2uuuuuuuuuu ",
" uuuuuuu> uuuuu=.uuuuq3>@ yu8 X;7yuuu$ #<euuuuuuu ",
" uuuuuuu> uuuuu; uu7@.%-$ yuue;o Oeuuu5%  ,uuuuuu ",
" uuuuuuu> uuuuu&+uy.#yuu, uuuuuu4 ;uuuuue% ruuuuu ",
" uuuuuuu> uuuutX*uq <uuu> uuuuuuuO*uuuuuu4 quuuuu ",
" uuuuuuu> 5yue& qut @rur% yu2qyr3 <u87ru0$.yuuuuu ",
" uuuuuuu> O . o6uuu3o XX- uu&X   &yu7+   X6uuuuuu ",
" uuuuuuu> u06qyuuuuuu99yyquuuuq7wuuuuut89yuuuuuuu ",
" uuuuuuu: uuuuuuuuuuuuuuuuuuuuuuuuuuuuuuuuuuuuuuu ",
" uuuuuuu> uuuuuuuuuuuuuuuuuuuuuuuuuuuuuuuuuuuuuuu ",
" uuuuuuuteuuuuuuuuuuuuuuuuuuuuuuuuuuuuuuuuuuuuuuu ",
" uuuuuuuuuuuuuuuuuuuuuuuuuuuuuuuuuuuuuuuuuuuuuuuu ",
" uuuuuuuuuuuuuuuuuuuuuuuuuuuuuuuuuuuuuuuuuuuuuuuu ",
" uuuuuuuuuuuuuuuuuuuuuuuuuuuuuuuuuuuuuuuuuuuuuuuu ",
" uuuuuuuuuuuuuuuuuuuuuuuuuuuuuuuuuuuuuuuuuuuuuuuu ",
" uuuuuuuuuuuuuuuuuuuuuuuuuuuuuuuuuuuuuuuuuuuuuuuu ",
" uuuuuuuuuuuuuuuuuuuuuuuuuuuuuuuuuuuuuuuuuuuuuuuu ",
" uuuuuuuuuuuuuuuuuuuuuuuuuuuuuuuuuuuuuuuuuuuuuuuu ",
" uuuuuuuuuuuuuuuuuuuuuuuuuuuuuuuuuuuuuuuuuuuuuuuu ",
" uuuuuuuuuuuuuuuuuuuuuuuuuuuuuuuuuuuuuuuuuuuuuuuu ",
" uuuuuuuuuuuuuuuuuuuuuuuuuuuuuuuuuuuuuuuuuuuuuuuu ",
" uuuuuuuuuuuuuuuuuuuuuuuuuuuuuuuuuuuuuuuuuuuuuuuu ",
" uuuuuuuuuuuuuuuuuuuuuuuuuuuuuuuuuuuuuuuuuuuuuuuu ",
" uuuuuuuuuuuuuuuuuuuuuuuuuuuuuuuuuuuuuuuuuuuuuuuu ",
" uuuuuuuuuuuuuuuuuuuuuuuuuuuuuuuuuuuuuuuuuuuuuuuu ",
" uuuuuuuuuuuuuuuuuuuuuuuuuuuuuuuuuuuuuuuuuuuuuuuu ",
"                                                  "
};
