/* XPM */
static char *_250cb7fbe6a4886e5133b2b54af736dYdH7vLHSYdG2Lwhv[] = {
/* columns rows colors chars-per-pixel */
"50 50 52 1 ",
"  c #191919",
". c #1E1E1E",
"X c #222222",
"o c #252525",
"O c gray17",
"+ c #2C2C2C",
"@ c gray19",
"# c #353535",
"$ c #3A3A3A",
"% c #3C3C3C",
"& c #414141",
"* c #444444",
"= c gray29",
"- c gray30",
"; c gray32",
": c gray34",
"> c gray35",
", c #5D5D5D",
"< c gray38",
"1 c gray42",
"2 c gray43",
"3 c gray44",
"4 c gray46",
"5 c gray48",
"6 c #818181",
"7 c #868686",
"8 c gray54",
"9 c #8D8D8D",
"0 c gray57",
"q c #959595",
"w c #989898",
"e c #9D9D9D",
"r c #A7A7A7",
"t c #ACACAC",
"y c #B2B2B2",
"u c gray71",
"i c #BBBBBB",
"p c gray74",
"a c #C0C0C0",
"s c #C3C3C3",
"d c #C8C8C8",
"f c #CDCDCD",
"g c gray82",
"h c LightGray",
"j c gray85",
"k c gray88",
"l c #ECECEC",
"z c #EEEEEE",
"x c gray94",
"c c gray97",
"v c #FBFBFB",
"b c white",
/* pixels */
"33333333333333333333333333333333333333333333333333",
"3                                                3",
"3                                                3",
"3                                                3",
"3                                                3",
"3                                                3",
"3                                                3",
"3                                                3",
"3                                                3",
"3                                                3",
"3                                                3",
"3                                                3",
"3                                                3",
"3                                                3",
"3                                                3",
"3                                 ##  X%X        3",
"3                                 sg  ;b>        3",
"3                                 dg  ;b,        3",
"3                                 sf  ;b>        3",
"3                                 dg  ;b,        3",
"3        ;d-   <d@   5u X9ikjy%   sf  ;b>        3",
"3        Ob0   ub4   ft or74qxk.  dg  ;b,        3",
"3         gd  Xxzi  ov1      5b*  sg  ;b>        3",
"3         9bo >c5cX ,bO      >b: .sf  ;b,        3",
"3         -b, eiOb, qf    +38pb:  sg  ;b>        3",
"3          xw k3 dr h9  %pbftyb:  dg  ;b,        3",
"3          yg&bO 7zOb-  sc+  :b:  sf  ;b>        3",
"3          3bqd  %bqz   zs   :b:  dg  ;b,        3",
"3          +bv6   kbt   fc& Xqb:  sg  ;b>        3",
"3           gb$   wb2   =jbzvwb:  sg  ;b,        3",
"3           @%    o%.     $:O %X  ##  X%X        3",
"3                                                3",
"3                                                3",
"3                                                3",
"3                                                3",
"3                                                3",
"3                                                3",
"3                                                3",
"3                                                3",
"3                                                3",
"3                                                3",
"3                                                3",
"3                                                3",
"3                                                3",
"3                                                3",
"3                                                3",
"3                                                3",
"3                                                3",
"3                                                3",
"33333333333333333333333333333333333333333333333333"
};
