/* XPM */
static char *cfa1a03a1bad4001a585b48310411501gyi9ZQkCJMNrnOUn[] = {
/* columns rows colors chars-per-pixel */
"50 50 86 1 ",
"  c None",
". c black",
"X c #010101",
"o c gray1",
"O c gray2",
"+ c #0B0B0B",
"@ c #0E0E0E",
"# c gray6",
"$ c #101010",
"% c #131313",
"& c #151515",
"* c #161616",
"= c #181818",
"- c gray10",
"; c gray11",
": c gray13",
"> c #222222",
", c #232323",
"< c #272727",
"1 c #2A2A2A",
"2 c #373737",
"3 c #393939",
"4 c gray24",
"5 c #3E3E3E",
"6 c gray25",
"7 c #414141",
"8 c gray27",
"9 c #464646",
"0 c #484848",
"q c gray29",
"w c #4B4B4B",
"e c #505050",
"r c #515151",
"t c gray33",
"y c #5A5A5A",
"u c #5F5F5F",
"i c gray38",
"p c #626262",
"a c #656565",
"s c #676767",
"d c #6C6C6C",
"f c gray44",
"g c #727272",
"h c gray45",
"j c #747474",
"k c gray47",
"l c #818181",
"z c #838383",
"x c #848484",
"c c gray52",
"v c #868686",
"b c #898989",
"n c gray55",
"m c #979797",
"M c gray60",
"N c #9D9D9D",
"B c #9F9F9F",
"V c gray64",
"C c gray65",
"Z c gray66",
"A c #A9A9A9",
"S c #AAAAAA",
"D c #AFAFAF",
"F c #B4B4B4",
"G c gray71",
"H c #BCBCBC",
"J c gray75",
"K c #C1C1C1",
"L c gray76",
"P c gray77",
"I c gray79",
"U c #CECECE",
"Y c gray83",
"T c gray84",
"R c #D7D7D7",
"E c #DADADA",
"W c #DFDFDF",
"Q c gray88",
"! c #E1E1E1",
"~ c gray91",
"^ c #ECECEC",
"/ c #F3F3F3",
"( c #F6F6F6",
") c gray97",
"_ c #FBFBFB",
"` c white",
/* pixels */
"                        gj                        ",
"                       gxxg                       ",
"                      gx((xg                      ",
"                     gx(``(xg                     ",
"                    gx(````(xg                    ",
"                   gx(``````(xg                   ",
"                  gx(````````(xg                  ",
"                 gx(``````````(xg                 ",
"                gx(````````````(xg                ",
"               gx(``````````````(xg               ",
"              gx(````````````````(xg              ",
"             gx(``````````````````(xg             ",
"            gx(````````````````````(xg            ",
"           gx(``````````````````````(xg           ",
"          gx(````````````````````````(xg          ",
"         gx(``````````````````````````(xg         ",
"        gx(````````````````````````````(lg        ",
"       jx(``````````````````````````````(xg       ",
"      jx(````````````````````````````````(xg      ",
"     jx(``````````````````````````````````(xg     ",
"    jx(````````````````````````````````````(xg    ",
"   jl(`````Q880l^A8~````````````````````````(xg   ",
"  jx(``````R.16.nb.W`````````````````````````(xg  ",
" jx_```````Y.uG.gb.WM&&:L03`8tI0-2RP&63```````(xj ",
"jx(````````Y..+wEb.WUlx.sC.H.V6:A$tL.tQ````````(xg",
" x(````````Y.a```b.W4<FOi`;:$_1:NkNH.N`````````(x ",
"  b(```````R.a```b.Wi+4-t`b.d`G&&;LH.A````````_x  ",
"   x(````````````````(```At.R```/````````````(x   ",
"    x_```````````````````muD````````````````_x    ",
"     x(````````````````````````````````````(x     ",
"      x(``````````````````````````````````(x      ",
"       x(````````````````````````````````(x       ",
"        b(``````````````````````````````(x        ",
"         x(````````````````````````````(x         ",
"          x_``````````````````````````_x          ",
"           x(````````````````````````(x           ",
"            x(``````````````````````(x            ",
"             x(````````````````````(x             ",
"              x(``````````````````(x              ",
"               x(````````````````(x               ",
"                x(``````````````(x                ",
"                 x(````````````_x                 ",
"                  x_``````````(x                  ",
"                   x(````````(x                   ",
"                    x(``````_x                    ",
"                     x(````(x                     ",
"                      x(``(x                      ",
"                       x((x                       ",
"                        xx                        ",
"                                                  "
};
