/* XPM */
static char *_d8c7301971547b1891b6c069329eaabiuoQsBoWX7TO7r25[] = {
/* columns rows colors chars-per-pixel */
"50 50 109 2 ",
"   c gray44",
".  c #727373",
"X  c #757676",
"o  c #747776",
"O  c #747877",
"+  c #757978",
"@  c #767C7A",
"#  c #777E7C",
"$  c #787F7D",
"%  c #7B817F",
"&  c #7A8380",
"*  c #7C8180",
"=  c #7B8582",
"-  c #7E8583",
";  c #7C8784",
":  c #7C8884",
">  c #7F8E8A",
",  c #808382",
"<  c #818483",
"1  c #808785",
"2  c #818987",
"3  c #858987",
"4  c #858888",
"5  c #878B8A",
"6  c #808F8A",
"7  c #868C8B",
"8  c #888D8B",
"9  c #888D8C",
"0  c #80908B",
"q  c #81918C",
"w  c #82948F",
"e  c #8A908E",
"r  c #839690",
"t  c #8D9190",
"y  c #859993",
"u  c #869B94",
"i  c #889F98",
"p  c #8C9E99",
"a  c #89A29A",
"s  c #8AA39B",
"d  c #8DA19A",
"f  c #8EA39C",
"g  c #8BA59D",
"h  c #8DA9A0",
"j  c #8EA8A0",
"k  c #8FA9A1",
"l  c #8FADA4",
"z  c #90ACA3",
"x  c #92ACA3",
"c  c #93AEA5",
"v  c #90B0A6",
"b  c #91B1A7",
"n  c #92B3A9",
"m  c #93B6AB",
"M  c #94B7AC",
"N  c #96BBAF",
"B  c #97BEB2",
"V  c #98BFB3",
"C  c #A2A8A6",
"Z  c #A3A8A6",
"A  c #A4AAA8",
"S  c gray75",
"D  c #9AC2B5",
"F  c #9CC2B6",
"G  c #9AC4B7",
"H  c #9CC6B9",
"J  c #9CC7B9",
"K  c #9DC9BB",
"L  c #9FCDBE",
"P  c #A0CEBF",
"I  c #BEC0BF",
"U  c #BCC2C0",
"Y  c #A1D1C2",
"T  c #A2D3C4",
"R  c #A3D4C4",
"E  c #A4D7C7",
"W  c #A5D9C9",
"Q  c #A7DBCB",
"!  c #A7DCCB",
"~  c #A7DDCC",
"^  c #A8DECD",
"/  c #AAE3D1",
"(  c #ABE3D1",
")  c #ABE5D3",
"_  c #ACE5D3",
"`  c #ACE6D4",
"'  c #AEEAD7",
"]  c #AFEDD9",
"[  c #B0EFDB",
"{  c #B3F3DF",
"}  c #B4F7E2",
"|  c #B5F8E3",
" . c #B6FBE5",
".. c #B7FCE6",
"X. c #B7FDE7",
"o. c #B8FDE7",
"O. c #B9FFE9",
"+. c #C1C1C1",
"@. c #C1C3C3",
"#. c #C3C3C3",
"$. c gray77",
"%. c #C9CBCA",
"&. c #CBCDCD",
"*. c #CDD0CF",
"=. c gray90",
"-. c #E7E7E7",
";. c #E9E9E9",
":. c gray93",
">. c white",
/* pixels */
"                                                                                                    ",
"  >.>.>.>.>.>.>.>.>.>.>.>.>.>.>.>.>.>.>.>.>.>.>.>.>.>.>.>.>.>.>.>.>.>.>.>.>.>.>.>.>.>.>.>.>.>.>.>.  ",
"  >.>.>.>.>.>.>.>.>.>.>.>.>.>.>.>.>.>.>.>.>.>.>.>.>.>.>.>.>.>.>.>.>.>.>.>.>.>.>.>.>.>.>.>.>.>.>.>.  ",
"  >.>.>.>.>.>.>.>.>.>.>.>.>.>.>.>.>.>.>.>.>.>.>.>.>.>.>.>.>.>.>.>.>.>.>.>.>.>.>.>.>.>.>.>.>.>.>.>.  ",
"  >.>.>.>.>.>.>.>.>.>.>.>.>.>.>.>.>.>.>.>.>.>.>.>.>.>.>.>.>.>.>.>.>.>.>.>.>.>.>.>.>.>.>.>.>.>.>.>.  ",
"  >.>.>.>.>.>.>.>.>.>.>.>.>.>.>.>.>.>.:.+.Z t < X X < t Z +.:.>.>.>.>.>.>.>.>.>.>.>.>.>.>.>.>.>.>.  ",
"  >.>.>.>.>.>.>.>.>.>.>.>.>.>.>.>.S 4 * c T ! ' | | ' ~ R z % 3 +.>.>.>.>.>.>.>.>.>.>.>.>.>.>.>.>.  ",
"  >.>.>.>.>.>.>.>.>.>.>.>.>.>.I   F ` O.O.O.O.O.O.O.O.O.O.O.O.) F   U >.>.>.>.>.>.>.>.>.>.>.>.>.>.  ",
"  >.>.>.>.>.>.>.>.>.>.>.>.=.7 c ..O.O.O.O.O.O.O.O.O.O.O.O.O.O.O.O. .z 9 =.>.>.>.>.>.>.>.>.>.>.>.>.  ",
"  >.>.>.>.>.>.>.>.>.>.>.%.2 { O.O.O.O.O.O.O.O.O.O.O.O.O.O.O.O.O.O.O.O.{ 1 &.>.>.>.>.>.>.>.>.>.>.>.  ",
"  >.>.>.>.>.>.>.>.>.>.U f O.O.O.O.O.O.O.O.O.O.O.O.O.O.O.O.O.O.O.O.O.O.O.O.d +.>.>.>.>.>.>.>.>.>.>.  ",
"  >.>.>.>.>.>.>.>.>.U k O.O.O.O.O.O.O.O.O.O.O.O.O.O.O.O.O.O.O.O.O.O.O.O.O.O.k +.>.>.>.>.>.>.>.>.>.  ",
"  >.>.>.>.>.>.>.>.%.f O.O.O.O.O.O.O.O.O.O.O.O.O.O.O.O.O.O.O.O.O.O.O.O.O.O.O.O.d &.>.>.>.>.>.>.>.>.  ",
"  >.>.>.>.>.>.>.=.2 O.O.O.O.O.O.O.O.O.O.O.O.O.O.O.O.O.O.O.O.O.O.O.O.O.O.O.O.O.O.1 =.>.>.>.>.>.>.>.  ",
"  >.>.>.>.>.>.>.7 { O.O.O.O.O.O.O.O.O.O.O.O.O.O.O.O.O.O.O.O.O.O.O.O.O.O.O.O.O.O.} 4 >.>.>.>.>.>.>.  ",
"  >.>.>.>.>.>.I c O.O.O.O.O.O.O.O.O.O.O.O.O.O.O.O.O.O.O.O.O.O.O.O.O.O.O.O.O.O.O.O.c +.>.>.>.>.>.>.  ",
"  >.>.>.>.>.>.   .O.O.O.O.O.O.O.O.O.O.O.O.O.O.O.O.O.O.O.O.O.O.O.O.O.O.O.O.O.O.O.O...O >.>.>.>.>.>.  ",
"  >.>.>.>.>.S F O.O.O.O.O.O.O.O.O.O.O.O.O.O.O.O.O.O.O.O.O.O.O.O.O.O.O.O.O.O.O.O.O.O.V S >.>.>.>.>.  ",
"  >.>.>.>.>.1 ` O.O.O.O.O.O.O.~ / O.O.O.O.O.O.O.O.O.O.O.O.O.O.O.O.O.O.O.O.O.O.O.O.O./ 4 >.>.>.>.>.  ",
"  >.>.>.>.:.& m u u i n ' O.O.g n O.O.O.O.O.O.O.O.O.O.O.O.O.O.O.O.O.O.O.O.O.O.O.O.O.O.% :.>.>.>.>.  ",
"  >.>.>.>.+.c y s T J u o ) ..g n O.O.O.O.O.O.O.O.O.O.O.O.O.O.O.O.O.O.O.O.O.O.O.O.O.O.x +.>.>.>.>.  ",
"  >.>.>.>.C T y m O.O.O.& k X.g n O.O.O.O.O.O...O.O.O.O.O.O.O.O.O.O.O.O.O.O.O.O.O.O.O.T A >.>.>.>.  ",
"  >.>.>.>.t Q u V O.O.O.k u O.g n O.O.u & + a { O.a G O.O.O.v V O.] i + + c  .O.P g n $ 4 >.>.>.>.  ",
"  >.>.>.>., ' u m O.O.O.& n O.g n O.O.] ..{ w m O.K ; O.O.| X ' O.> m } ' : V O.D + V W , >.>.>.>.  ",
"  >.>.>.>.X } u q n z & 6 { O.g n O.O.O.O.O.D q O.| O ~ O.L > O.( + O.O.O.M q O.J r O.| X >.>.>.>.  ",
"  >.>.>.>.X } y y V J ' X...O.g n O.O.~ c w $ q O.O.c a O.y H O.Y   & & & + & O.J q O.| X >.>.>.>.  ",
"  >.>.>.>.1 ' u m O.O.O.O.O.O.g n O.W # T { J q O.O.' o ' X } O.R &  ...O. . .O.D q O.' < >.>.>.>.  ",
"  >.>.>.>.t W y N O.O.O.O.O.O.g n O.v a O.O.J q O.O.O.w : a O.O.} . / O.O.O.O.O.J r O.! t >.>.>.>.  ",
"  >.>.>.>.C R u B O.O.O.O.O.O.g n O.^ X m B > 0 O.O.O.T   W O.O.O.D X r m g c O.D q O.T A >.>.>.>.  ",
"  >.>.>.>.+.k W ) O.O.O.O.O.O.~ / O.O.' D L { R O.O.O.W & X.O.O.O.O._ J V T o.O.' W O.z $.>.>.>.>.  ",
"  >.>.>.>.:.& O.O.O.O.O.O.O.O.O.O.O.O.O.O.O.O.O.O.^ D & T O.O.O.O.O.O.O.O.O.O.O.O.O.O.$ :.>.>.>.>.  ",
"  >.>.>.>.>.4 ` O.O.O.O.O.O.O.O.O.O.O.O.O.O.O.O.O.~ n R X.O.O.O.O.O.O.O.O.O.O.O.O.O.( 5 >.>.>.>.>.  ",
"  >.>.>.>.>.S D O.O.O.O.O.O.O.O.O.O.O.O.O.O.O.O.O.O.O.O.O.O.O.O.O.O.O.O.O.O.O.O.O.O.V +.>.>.>.>.>.  ",
"  >.>.>.>.>.>.  ..O.O.O.O.O.O.O.O.O.O.O.O.O.O.O.O.O.O.O.O.O.O.O.O.O.O.O.O.O.O.O.O. .X >.>.>.>.>.>.  ",
"  >.>.>.>.>.>.I c O.O.O.O.O.O.O.O.O.O.O.O.O.O.O.O.O.O.O.O.O.O.O.O.O.O.O.O.O.O.O.O.z $.>.>.>.>.>.>.  ",
"  >.>.>.>.>.>.>.9 } O.O.O.O.O.O.O.O.O.O.O.O.O.O.O.O.O.O.O.O.O.O.O.O.O.O.O.O.O.O.[ 8 >.>.>.>.>.>.>.  ",
"  >.>.>.>.>.>.>.-.; O.O.O.O.O.O.O.O.O.O.O.O.O.O.O.O.O.O.O.O.O.O.O.O.O.O.O.O.O.O.- ;.>.>.>.>.>.>.>.  ",
"  >.>.>.>.>.>.>.>.&.d O.O.O.O.O.O.O.O.O.O.O.O.O.O.O.O.O.O.O.O.O.O.O.O.O.O.O.O.p &.>.>.>.>.>.>.>.>.  ",
"  >.>.>.>.>.>.>.>.>.+.k O.O.O.O.O.O.O.O.O.O.O.O.O.O.O.O.O.O.O.O.O.O.O.O.O.O.k $.>.>.>.>.>.>.>.>.>.  ",
"  >.>.>.>.>.>.>.>.>.>.I p O.O.O.O.O.O.O.O.O.O.O.O.O.O.O.O.O.O.O.O.O.O.O.O.p $.>.>.>.>.>.>.>.>.>.>.  ",
"  >.>.>.>.>.>.>.>.>.>.>.&.2 { O.O.O.O.O.O.O.O.O.O.O.O.O.O.O.O.O.O.O.O.{ - &.>.>.>.>.>.>.>.>.>.>.>.  ",
"  >.>.>.>.>.>.>.>.>.>.>.>.=.8 z | X.O.O.O.O.O.O.O.O.O.O.O.O.O.O.O.} z e ;.>.>.>.>.>.>.>.>.>.>.>.>.  ",
"  >.>.>.>.>.>.>.>.>.>.>.>.>.>.+.X D _ O.O.o.O.O.O.O.O.O.O.O.O./ V X +.>.>.>.>.>.>.>.>.>.>.>.>.>.>.  ",
"  >.>.>.>.>.>.>.>.>.>.>.>.>.>.>.>.+.4 % z T W ' } } ' W R z % 4 +.>.>.>.>.>.>.>.>.>.>.>.>.>.>.>.>.  ",
"  >.>.>.>.>.>.>.>.>.>.>.>.>.>.>.>.>.>.:.+.A t < X X < t A $.:.>.>.>.>.>.>.>.>.>.>.>.>.>.>.>.>.>.>.  ",
"  >.>.>.>.>.>.>.>.>.>.>.>.>.>.>.>.>.>.>.>.>.>.>.>.>.>.>.>.>.>.>.>.>.>.>.>.>.>.>.>.>.>.>.>.>.>.>.>.  ",
"  >.>.>.>.>.>.>.>.>.>.>.>.>.>.>.>.>.>.>.>.>.>.>.>.>.>.>.>.>.>.>.>.>.>.>.>.>.>.>.>.>.>.>.>.>.>.>.>.  ",
"  >.>.>.>.>.>.>.>.>.>.>.>.>.>.>.>.>.>.>.>.>.>.>.>.>.>.>.>.>.>.>.>.>.>.>.>.>.>.>.>.>.>.>.>.>.>.>.>.  ",
"  >.>.>.>.>.>.>.>.>.>.>.>.>.>.>.>.>.>.>.>.>.>.>.>.>.>.>.>.>.>.>.>.>.>.>.>.>.>.>.>.>.>.>.>.>.>.>.>.  ",
"                                                                                                    "
};
