/* XPM */
static char *eec95d361e204ba5de3c146b8ba38b60PSglTgeS1iBLkfQf[] = {
/* columns rows colors chars-per-pixel */
"50 50 96 2 ",
"   c None",
".  c black",
"X  c #010101",
"o  c #020202",
"O  c gray1",
"+  c gray2",
"@  c gray3",
"#  c gray4",
"$  c #0C0C0C",
"%  c #101010",
"&  c #131313",
"*  c gray8",
"=  c #161616",
"-  c gray10",
";  c gray11",
":  c #1D1D1D",
">  c #232323",
",  c gray14",
"<  c #252525",
"1  c #272727",
"2  c gray16",
"3  c gray17",
"4  c #2D2D2D",
"5  c #313131",
"6  c #323232",
"7  c #343434",
"8  c #373737",
"9  c gray22",
"0  c #3A3A3A",
"q  c #3C3C3C",
"w  c #464646",
"e  c #484848",
"r  c gray29",
"t  c #4B4B4B",
"y  c #505050",
"u  c #535353",
"i  c gray33",
"p  c #5F5F5F",
"a  c #626262",
"s  c gray39",
"d  c #656565",
"f  c #676767",
"g  c #686868",
"h  c #6F6F6F",
"j  c gray44",
"k  c #727272",
"l  c gray45",
"z  c #747474",
"x  c #7E7E7E",
"c  c #818181",
"v  c gray51",
"b  c #848484",
"n  c gray52",
"m  c #868686",
"M  c gray53",
"N  c #888888",
"B  c gray54",
"V  c #8D8D8D",
"C  c gray56",
"Z  c #979797",
"A  c #9F9F9F",
"S  c gray65",
"D  c gray66",
"F  c #A9A9A9",
"G  c gray68",
"H  c #AFAFAF",
"J  c #B2B2B2",
"K  c #B6B6B6",
"L  c gray73",
"P  c gray",
"I  c gray75",
"U  c #C0C0C0",
"Y  c #C3C3C3",
"T  c gray78",
"R  c gray82",
"E  c LightGray",
"W  c gray83",
"Q  c #D7D7D7",
"!  c gray85",
"~  c #DADADA",
"^  c gray86",
"/  c gray87",
"(  c #DFDFDF",
")  c #E4E4E4",
"_  c gray90",
"`  c #E6E6E6",
"'  c #E7E7E7",
"]  c gray91",
"[  c #ECECEC",
"{  c #F3F3F3",
"}  c gray96",
"|  c #F6F6F6",
" . c #F9F9F9",
".. c #FBFBFB",
"X. c #FEFEFE",
"o. c white",
/* pixels */
"                                                k z                                                 ",
"                                              k b b k                                               ",
"                                            k b | | b k                                             ",
"                                          k b | o.o.| b k                                           ",
"                                        k b | o.o.o.o.| b k                                         ",
"                                      k b | o.o.o.o.o.o.| b k                                       ",
"                                    k b | o.o.o.o.o.o.o.o.| b k                                     ",
"                                  k b | o.o.o.o.o.o.o.o.o.o.| b k                                   ",
"                                k b | o.o.o.o.o.o.o.o.o.o.o.o.| b k                                 ",
"                              k b | o.o.o.o.o.o.o.o.o.o.o.o.o.o.| b k                               ",
"                            k b | o.o.o.o.o.o.o.o.o.o.o.o.o.o.o.o.| b k                             ",
"                          k b | o.o.o.o.o.o.o.o.o.o.o.o.o.o.o.o.o.o.| b k                           ",
"                        k b | o.o.o.o.o.o.o.o.o.o.o.o.o.o.o.o.o.o.o.o.| b k                         ",
"                      k b | o.o.o.o.o.o.o.o.o.o.o.o.o.o.o.o.o.o.o.o.o.o.| b k                       ",
"                    k b | o.o.o.o.o.o.o.o.o.o.o.o.o.o.o.o.o.o.o.o.o.o.o.o.| b k                     ",
"                  k b | o.o.o.o.o.o.o.o.o.o.o.o.o.o.o.o.o.o.o.o.o.o.o.o.o.o.| b k                   ",
"                k b | o.o.o.o.o.o.o.o.o.o.o.o.o.o.o.o.o.o.o.o.o.o.o.o.o.o.o.o.| b k                 ",
"              z b | o.o.o.o.o.o.o.o.o.o.o.o.o.o.o.o.o.o.o.o.o.o.o.o.o.o.o.o.o.o.| b k               ",
"            z b | o.o.o.o.o.o.o.o.o.o.o.o.o.G a Z o.o.o.o.o.o.o.o.o.o.o.o.o.o.o.o.| b k             ",
"          z b | o.o.o.o.o.o.o.o.o.{ o.o.o.Q + t F o.o.o.| o.o.o.o.o.o.o.o.o.o.o.o.o.| b k           ",
"        z b | o.o.o.o.o.F . P U : & = K o.h . C o.i - q # a ) . N o.o.o.f . Q o.o.o.o.| b k         ",
"      z b | o.o.o.o.o.o.A . P F c G , 4 ..= : > o.a + U 2 5 ( . N o.o.o.f . R o.o.o.o.o.| b k       ",
"    z b | o.o.o.o.o.o...f . P e & C , 7 J . F . K f + f b _ ( . N _ g 2 # . R o.o.o.o.o.o.| b k     ",
"  z b ..o.o.o.o.o.o.o.7 - . P L + 5 = G u 2 o.- e S . 0 + h ( . N x . N e . R o.o.o.o.o.o.o.| b z   ",
"z b | o.o.o.o.o.o.o.o.^ [ ^ | o.| R ..o.( _ o._ ^ o._ T ^ o.( . N c . g 0 . Q o.o.o.o.o.o.o.o.| b k ",
"  b | o.o.o.o.o.o.o.o.o.o.o.o.o.o.o.o.o.o.o.o.o.o.o.o.o.o.o._ w F [ c e w w ( o.o.o.o.o.o.o.o.| b   ",
"    N ..o.o.o.o.o.o.o.o.o.o.o.o.o.o.o.o.o.o.o.o.o.o.o.o.o.o.o.o.o.o.o.o.o.o.o.o.o.o.o.o.o.o...b     ",
"      b | o.o.o.o.o.o.o.o.o.o.o.o.o.o.o.o.o.o.o.o.o.o.o.o.o.o.o.o.o.o.o.o.o.o.o.o.o.o.o.o.| b       ",
"        b | o.o.o.o.o.o.o.o.o.o.o.o.o.o.o.o.o.o.o.o.o.o.o.o.o.o.o.o.o.o.o.o.o.o.o.o.o.o...b         ",
"          b | o.o.o.o.o.o.o.o.o.o.o.o.o.o.o.o.o.o.o.o.o.o.o.o.o.o.o.o.o.o.o.o.o.o.o.o.| b           ",
"            b | o.o.o.o.o.o.o.o.o.o.o.o.o.o.o.o.o.o.o.o.o.o.o.o.o.o.o.o.o.o.o.o.o.o.| b             ",
"              b | o.o.o.o.o.o.o.o.o.o.o.o.o.o.o.o.o.o.o.o.o.o.o.o.o.o.o.o.o.o.o.o.| b               ",
"                N | o.o.o.o.o.o.o.o.o.o.o.o.o.o.o.o.o.o.o.o.o.o.o.o.o.o.o.o.o.o.| b                 ",
"                  b | o.o.o.o.o.o.o.o.o.o.o.o.o.o.o.o.o.o.o.o.o.o.o.o.o.o.o.o.| b                   ",
"                    b | o.o.o.o.o.o.o.o.o.o.o.o.o.o.o.o.o.o.o.o.o.o.o.o.o.o...b                     ",
"                      N | o.o.o.o.o.o.o.o.o.o.o.o.o.o.o.o.o.o.o.o.o.o.o.o.| b                       ",
"                        b | o.o.o.o.o.o.o.o.o.o.o.o.o.o.o.o.o.o.o.o.o.o.| b                         ",
"                          b | o.o.o.o.o.o.o.o.o.o.o.o.o.o.o.o.o.o.o.o.| b                           ",
"                            b | o.o.o.o.o.o.o.o.o.o.o.o.o.o.o.o.o.o.| b                             ",
"                              b | o.o.o.o.o.o.o.o.o.o.o.o.o.o.o.o.| b                               ",
"                                b | o.o.o.o.o.o.o.o.o.o.o.o.o.o.| b                                 ",
"                                  b | o.o.o.o.o.o.o.o.o.o.o.o...b                                   ",
"                                    b ..o.o.o.o.o.o.o.o.o.o.| b                                     ",
"                                      b | o.o.o.o.o.o.o.o.| b                                       ",
"                                        b | o.o.o.o.o.o...b                                         ",
"                                          b | o.o.o.o.| b                                           ",
"                                            b | o.o.| b                                             ",
"                                              b | | b                                               ",
"                                                b b                                                 ",
"                                                                                                    "
};
