/* XPM */
static char *e27ad1be592044beb78f3277b1a6428034N3xGqB8mjV9KEV[] = {
/* columns rows colors chars-per-pixel */
"50 50 96 2 ",
"   c None",
".  c black",
"X  c #010101",
"o  c #020202",
"O  c gray2",
"+  c #070707",
"@  c gray3",
"#  c #0B0B0B",
"$  c #0C0C0C",
"%  c gray5",
"&  c #101010",
"*  c gray7",
"=  c gray8",
"-  c #151515",
";  c gray9",
":  c gray11",
">  c #1D1D1D",
",  c gray12",
"<  c #222222",
"1  c gray14",
"2  c #252525",
"3  c #282828",
"4  c gray17",
"5  c #2C2C2C",
"6  c #323232",
"7  c #353535",
"8  c gray21",
"9  c #3C3C3C",
"0  c #3E3E3E",
"q  c #414141",
"w  c #434343",
"e  c #464646",
"r  c gray28",
"t  c gray29",
"y  c #4C4C4C",
"u  c gray31",
"i  c #535353",
"p  c gray34",
"a  c #5B5B5B",
"s  c #5D5D5D",
"d  c #5F5F5F",
"f  c gray42",
"g  c #6C6C6C",
"h  c #727272",
"j  c gray45",
"k  c #747474",
"l  c #7B7B7B",
"z  c #7C7C7C",
"x  c gray51",
"c  c #848484",
"v  c gray52",
"b  c #868686",
"n  c #898989",
"m  c #8B8B8B",
"M  c gray57",
"N  c gray59",
"B  c gray60",
"V  c #9D9D9D",
"C  c gray63",
"Z  c #A5A5A5",
"A  c #A9A9A9",
"S  c gray68",
"D  c #B2B2B2",
"F  c #B4B4B4",
"G  c #B7B7B7",
"H  c #C8C8C8",
"J  c gray79",
"K  c #CBCBCB",
"L  c #CECECE",
"P  c gray81",
"I  c #D0D0D0",
"U  c gray83",
"Y  c gray85",
"T  c #DADADA",
"R  c #DFDFDF",
"E  c gray88",
"W  c gray89",
"Q  c #E4E4E4",
"!  c gray90",
"~  c #E7E7E7",
"^  c gray91",
"/  c gray92",
"(  c #EEEEEE",
")  c #F1F1F1",
"_  c gray95",
"`  c #F3F3F3",
"'  c gray96",
"]  c #F6F6F6",
"[  c gray97",
"{  c #F8F8F8",
"}  c #F9F9F9",
"|  c gray98",
" . c #FBFBFB",
".. c #FDFDFD",
"X. c #FEFEFE",
"o. c white",
/* pixels */
"                                                h k                                                 ",
"                                              h c c h                                               ",
"                                            h c ] ] c h                                             ",
"                                          h c ] o.o.] c h                                           ",
"                                        h c ] o.o.o.o.] c h                                         ",
"                                      h c ] o.o.o.o.o.o.] c h                                       ",
"                                    h c ] o.o.o.o.o.o.o.o.] c h                                     ",
"                                  h c ] o.o.o.o.o.o.o.o.o.o.] c h                                   ",
"                                h c ] o.o.o.o.o.o.o.o.o.o.o.o.] c h                                 ",
"                              h c ] o.o.o.o.o.o.o.o.o.o.o.o.o.o.] c h                               ",
"                            h c ] o.o.o.o.o.i i i i i x o.o.o.o.o.] c h                             ",
"                          h c ] o.o.o.o.o.o.. . . . . e o.o.o.o.o.o.] c h                           ",
"                        h c ] o.o.o.o.o.o.o.! ! : V l e o.o.o.o.o.o.o.] c h                         ",
"                      h c ] o.o.o.o.o.o.o.o.o.o.q 7 2 a o.o.o.o.o.o.o.o.] c h                       ",
"                    h c ] o.o.o.o.o.o.o.o.o.o.o.Z # # G o.o.o.o.o.o.o.o.o.] c h                     ",
"                  h c ] o.o.o.o.o.o.o.o.o.o.o.o.o._ ] o.o.o.o.o.o.o.o.o.o.o.] c h                   ",
"                h x ] o.o.o.o.o.o.o.o.o.o.o.+ # + + # t o.o.o.o.o.o.o.o.o.o.o.] c h                 ",
"              k c ] o.o.o.o.o.o.o.o.o.o.o.o.d d d d d m o.o.o.o.o.o.o.o.o.o.o.o.] c h               ",
"            k c ] o.o.o.o.o.o.o.o.o.o.o.o.o.I D { R o.o.o.o.o.o.o.o.o.o.o.o.o.o.o.] c h             ",
"          k c ] o.o.o.o.o.o.o.o.o.o.o.o.o.o.- . D * _ o.o.o.o.o.o.o.o.o.o.o.o.o.o.o.] c h           ",
"        k c ] o.o.o.o.o.o.o.o.o.o.o.o.o.o.{ < c l 2 J o.o.o.o.o.o.o.o.o.o.o.o.o.o.o.o.] c h         ",
"      k c ] o.o.o.o.o.o.o.o.o.o.o.o.o.o.o.o.9 f 5 : L o.o.o.o.o.o.o.o.o.o.o.o.o.o.o.o.o.] c h       ",
"    k c ] o.o.o.o.o.o.o.o.o.o.o.o.o.o.o.o.o.. . . 4 { o.o.o.o.o.o.o.o.o.o.o.o.o.o.o.o.o.o.] c h     ",
"  k c { o.o.o.o.o.o.o.o.o.o.o.o.o.o.o.o.! ! U W ! J ( o.o.o.o.o.o.o.o.o.o.o.o.o.o.o.o.o.o.o.] c h   ",
"k c ] o.o.o.o.o.o.o.o.o.o.o.o.o.o.o.o.o.a m { C 7 . Y o.o.o.o.o.o.o.o.o.o.o.o.o.o.o.o.o.o.o.o.] c h ",
"  m ] o.o.o.o.o.o.o.o.o.o.o.o.o.o.o.o.o.l $ - + t B ] o.o.o.o.o.o.o.o.o.o.o.o.o.o.o.o.o.o.o.o.{ c   ",
"    c { o.o.o.o.o.o.o.o.o.o.o.o.o.o.o.o.! d + * d A { o.o.o.o.o.o.o.o.o.o.o.o.o.o.o.o.o.o.o.] c     ",
"      c ] o.o.o.o.o.o.o.o.o.o.o.o.o.o.o.o.o./ M 6 . Y o.o.o.o.o.o.o.o.o.o.o.o.o.o.o.o.o.o.] c       ",
"        c { o.o.o.o.o.o.o.o.o.o.o.o.o.o.o.o.] S G I ( o.o.o.o.o.o.o.o.o.o.o.o.o.o.o.o.o.{ m         ",
"          c ] o.o.o.o.o.o.o.o.o.o.o.o.o.o.o.i . . q o.o.o.o.o.o.o.o.o.o.o.o.o.o.o.o.o.] c           ",
"            c ] o.o.o.o.o.o.o.o.o.o.o.o.o.{ # l g : W o.o.o.o.o.o.o.o.o.o.o.o.o.o.o.] c             ",
"              c ] o.o.o.o.o.o.o.o.o.o.o.o.{ * N a - W o.o.o.o.o.o.o.o.o.o.o.o.o.o.] c               ",
"                m ] o.o.o.o.o.o.o.o.o.o.o.o.a m . t o.o.o.o.o.o.o.o.o.o.o.o.o.o.] c                 ",
"                  c ] o.o.o.o.o.o.o.o.o.o.o.o.W J { o.o.o.o.o.o.o.o.o.o.o.o.o.] c                   ",
"                    c { o.o.o.o.o.o.o.o.o.o.9 9 q 9 W o.o.o.o.o.o.o.o.o.o.o.{ c                     ",
"                      c ] o.o.o.o.o.o.o.o.o.4 : . - ! o.o.o.o.o.o.o.o.o.o.] c                       ",
"                        c ] o.o.o.o.o.o.o.o.o.o.W . Y o.o.o.o.o.o.o.o.o.] c                         ",
"                          c ] o.o.o.o.o.o.o.o.o.o.G _ o.o.o.o.o.o.o.o.] c                           ",
"                            c ] o.o.o.o.o.o.o.o.o.o.o.o.o.o.o.o.o.o.] c                             ",
"                              c ] o.o.o.o.o.o.o.o.o.o.o.o.o.o.o.o.] c                               ",
"                                c { o.o.o.o.o.o.o.o.o.o.o.o.o.o.{ c                                 ",
"                                  c ] o.o.o.o.o.o.o.o.o.o.o.o.{ c                                   ",
"                                    c { o.o.o.o.o.o.o.o.o.o.{ c                                     ",
"                                      c ] o.o.o.o.o.o.o.o.] c                                       ",
"                                        c ] o.o.o.o.o.o.{ c                                         ",
"                                          c ] o.o.o.o.] c                                           ",
"                                            c ] o.o.] c                                             ",
"                                              c ] ] c                                               ",
"                                                c c                                                 ",
"                                                                                                    "
};
