/* XPM */
static char *c44ef87220bd4f03b03de39c262aab7bBgPrjPYiWrbA7M5y[] = {
/* columns rows colors chars-per-pixel */
"50 50 97 2 ",
"   c None",
".  c black",
"X  c #010101",
"o  c #020202",
"O  c gray2",
"+  c #070707",
"@  c #090909",
"#  c #0B0B0B",
"$  c #0C0C0C",
"%  c gray5",
"&  c #101010",
"*  c gray7",
"=  c gray8",
"-  c #151515",
";  c gray9",
":  c gray11",
">  c #1D1D1D",
",  c gray12",
"<  c #222222",
"1  c gray14",
"2  c #252525",
"3  c #272727",
"4  c gray17",
"5  c #2C2C2C",
"6  c #323232",
"7  c #353535",
"8  c gray21",
"9  c #3C3C3C",
"0  c #3F3F3F",
"q  c #414141",
"w  c #434343",
"e  c #464646",
"r  c gray28",
"t  c gray29",
"y  c #4C4C4C",
"u  c gray31",
"i  c gray33",
"p  c gray34",
"a  c #5B5B5B",
"s  c #5D5D5D",
"d  c gray37",
"f  c #5F5F5F",
"g  c gray42",
"h  c #6C6C6C",
"j  c #727272",
"k  c gray45",
"l  c #747474",
"z  c #7B7B7B",
"x  c #7C7C7C",
"c  c #838383",
"v  c #848484",
"b  c gray52",
"n  c #868686",
"m  c #898989",
"M  c #8B8B8B",
"N  c gray57",
"B  c gray59",
"V  c gray60",
"C  c #9D9D9D",
"Z  c gray63",
"A  c #A5A5A5",
"S  c #A9A9A9",
"D  c gray68",
"F  c #B2B2B2",
"G  c #B4B4B4",
"H  c #B7B7B7",
"J  c #C8C8C8",
"K  c gray79",
"L  c #CBCBCB",
"P  c #CECECE",
"I  c gray81",
"U  c #D0D0D0",
"Y  c gray83",
"T  c #DADADA",
"R  c gray86",
"E  c #DFDFDF",
"W  c gray88",
"Q  c #E2E2E2",
"!  c gray89",
"~  c #E4E4E4",
"^  c #E7E7E7",
"/  c gray91",
"(  c gray92",
")  c #EEEEEE",
"_  c #F1F1F1",
"`  c gray95",
"'  c #F3F3F3",
"]  c gray96",
"[  c #F6F6F6",
"{  c gray97",
"}  c #F8F8F8",
"|  c #F9F9F9",
" . c gray98",
".. c #FBFBFB",
"X. c #FDFDFD",
"o. c #FEFEFE",
"O. c white",
/* pixels */
"                                                j l                                                 ",
"                                              j v v j                                               ",
"                                            j v [ [ v j                                             ",
"                                          j v [ O.O.[ v j                                           ",
"                                        j v [ O.O.O.O.[ v j                                         ",
"                                      j v [ O.O.O.O.O.O.[ v j                                       ",
"                                    j v [ O.O.O.O.O.O.O.O.[ v j                                     ",
"                                  j v [ O.O.O.O.O.O.O.O.O.O.[ v j                                   ",
"                                j v [ O.O.O.O.O.O.O.O.O.O.O.O.[ v j                                 ",
"                              j v [ O.O.O.O.O.O.' H O.O.O.O.O.O.[ v j                               ",
"                            j v [ O.O.O.O.O.O.O.R o W O.O.O.O.O.O.[ v j                             ",
"                          j v [ O.O.O.O.O.O.O.O.~ ; o , 2 O.O.O.O.O.[ v j                           ",
"                        j v [ O.O.O.O.O.O.O.O.O.W 0 0 0 0 O.O.O.O.O.O.[ v j                         ",
"                      j v [ O.O.O.O.O.O.O.O.O.O.O...L E ..O.O.O.O.O.O.O.[ v j                       ",
"                    j v [ O.O.O.O.O.O.O.O.O.O.O.O.r o m s O.O.O.O.O.O.O.O.[ v j                     ",
"                  j v [ O.O.O.O.O.O.O.O.O.O.O.O.W ; p B * ..O.O.O.O.O.O.O.O.[ v j                   ",
"                j v [ O.O.O.O.O.O.O.O.O.O.O.O.O.W , g z # [ O.O.O.O.O.O.O.O.O.[ v j                 ",
"              l v [ O.O.O.O.O.O.O.O.O.O.O.O.O.O.O.r o o u O.O.O.O.O.O.O.O.O.O.O.[ v j               ",
"            l v [ O.O.O.O.O.O.O.O.O.O.O.O.O.O.O.) I F D [ O.O.O.O.O.O.O.O.O.O.O.O.[ v j             ",
"          l v [ O.O.O.O.O.O.O.O.O.O.O.O.O.O.O.O.R o 6 N ) O.O.O.O.O.O.O.O.O.O.O.O.O.[ v j           ",
"        l v [ O.O.O.O.O.O.O.O.O.O.O.O.O.O.O.O.O...S s * O a / O.O.O.O.O.O.O.O.O.O.O.O.[ v j         ",
"      l v [ O.O.O.O.O.O.O.O.O.O.O.O.O.O.O.O.O.O.[ V t # * % x O.O.O.O.O.O.O.O.O.O.O.O.O.[ v j       ",
"    l v [ O.O.O.O.O.O.O.O.O.O.O.O.O.O.O.O.O.O.O.R o 8 Z ..m a O.O.O.O.O.O.O.O.O.O.O.O.O.O.[ v j     ",
"  l v ..O.O.O.O.O.O.O.O.O.O.O.O.O.O.O.O.O.O.O.O.) J ~ W Y ~ ~ O.O.O.O.O.O.O.O.O.O.O.O.O.O.O.[ v l   ",
"l v [ O.O.O.O.O.O.O.O.O.O.O.O.O.O.O.O.O.O.O.O.O...4 o o o O.O.O.O.O.O.O.O.O.O.O.O.O.O.O.O.O.O.[ v j ",
"  v [ O.O.O.O.O.O.O.O.O.O.O.O.O.O.O.O.O.O.O.O.O.I : 5 g 9 O.O.O.O.O.O.O.O.O.O.O.O.O.O.O.O.O.O.[ v   ",
"    m [ O.O.O.O.O.O.O.O.O.O.O.O.O.O.O.O.O.O.O.O.J < x v < [ O.O.O.O.O.O.O.O.O.O.O.O.O.O.O.O...v     ",
"      v [ O.O.O.O.O.O.O.O.O.O.O.O.O.O.O.O.O.O.O.' % F o ; ..O.O.O.O.O.O.O.O.O.O.O.O.O.O.O.[ v       ",
"        v ..O.O.O.O.O.O.O.O.O.O.O.O.O.O.O.O.O.O.O.W ..F I O.O.O.O.O.O.O.O.O.O.O.O.O.O.O...v         ",
"          v [ O.O.O.O.O.O.O.O.O.O.O.O.O.O.O.O.m s s s s s O.O.O.O.O.O.O.O.O.O.O.O.O.O.[ v           ",
"            v [ O.O.O.O.O.O.O.O.O.O.O.O.O.O.O.t # # # O # O.O.O.O.O.O.O.O.O.O.O.O.O.[ v             ",
"              v [ O.O.O.O.O.O.O.O.O.O.O.O.O.O.O.' ' O.O.O.O.O.O.O.O.O.O.O.O.O.O.O.[ v               ",
"                m [ O.O.O.O.O.O.O.O.O.O.O.O.O.H # # A O.O.O.O.O.O.O.O.O.O.O.O.O.[ v                 ",
"                  v [ O.O.O.O.O.O.O.O.O.O.O.O.a 2 8 q O.O.O.O.O.O.O.O.O.O.O.O.[ v                   ",
"                    v ..O.O.O.O.O.O.O.O.O.O.O.r x V : W W O.O.O.O.O.O.O.O.O...v                     ",
"                      v [ O.O.O.O.O.O.O.O.O.O.r o o o o o O.O.O.O.O.O.O.O.[ v                       ",
"                        v [ O.O.O.O.O.O.O.O.O.c i i i i i O.O.O.O.O.O.O.[ v                         ",
"                          v [ O.O.O.O.O.O.O.O.O.O.O.O.O.O.O.O.O.O.O.O.[ v                           ",
"                            v [ O.O.O.O.O.O.O.O.O.O.O.O.O.O.O.O.O.O.[ v                             ",
"                              v [ O.O.O.O.O.O.O.O.O.O.O.O.O.O.O.O.[ v                               ",
"                                v [ O.O.O.O.O.O.O.O.O.O.O.O.O.O.[ v                                 ",
"                                  v [ O.O.O.O.O.O.O.O.O.O.O.O...v                                   ",
"                                    v ..O.O.O.O.O.O.O.O.O.O.[ v                                     ",
"                                      v [ O.O.O.O.O.O.O.O.[ v                                       ",
"                                        v [ O.O.O.O.O.O...v                                         ",
"                                          v [ O.O.O.O.[ v                                           ",
"                                            v [ O.O.[ v                                             ",
"                                              v [ [ v                                               ",
"                                                v v                                                 ",
"                                                                                                    "
};
