/* XPM */
static char *_a2fa8860f64400cf138fe6a934320c8WzsPyRJwU3szC6tJ[] = {
/* columns rows colors chars-per-pixel */
"50 50 89 1 ",
"  c black",
". c #0C0C0C",
"X c gray9",
"o c #232323",
"O c gray18",
"+ c #3A3A3A",
"@ c #464646",
"# c #505050",
"$ c #515151",
"% c #525352",
"& c #5D5D5D",
"* c #606060",
"= c #606361",
"- c #676767",
"; c gray44",
": c #747474",
"> c #7A7E7A",
", c #778178",
"< c #788178",
"1 c #808180",
"2 c #838683",
"3 c #848484",
"4 c #858A86",
"5 c #8B8B8B",
"6 c #8C8E8C",
"7 c #8D948E",
"8 c #8E948F",
"9 c #929292",
"0 c #929792",
"q c #959595",
"w c #969A96",
"e c #9A9A9A",
"r c gray62",
"t c #9FA19F",
"y c #9CBD9F",
"u c #A3A4A3",
"i c #A3A6A4",
"p c #A4A6A4",
"a c gray67",
"s c #A8ACA8",
"d c #AAB1AB",
"f c #A8B6AA",
"g c #ADB5AD",
"h c #ABBAAC",
"j c #ABBBAC",
"k c #AFB9B0",
"l c #B1B3B1",
"z c #B2B5B2",
"x c #B2B6B3",
"c c #B3B7B3",
"v c gray72",
"b c #B9B9B9",
"n c #BBBBBB",
"m c #BCBCBC",
"M c gray75",
"N c #85C98A",
"B c #91C495",
"V c #95F69D",
"C c #91FF9A",
"Z c #93FB9C",
"A c #9ED1A3",
"S c #A6C4A8",
"D c #A8C0AA",
"F c #A9C0AB",
"G c #ADC3AF",
"H c #ABC4AD",
"J c #ADC7AF",
"K c #A5CBA8",
"L c #AACBAD",
"P c #A1D5A5",
"I c #A2D6A6",
"U c #A1DEA6",
"Y c #A9D2AD",
"T c #A3D9A8",
"R c #9DE9A3",
"E c #9AEDA1",
"W c #A0E4A5",
"Q c #C1C1C1",
"! c #C6C6C6",
"~ c #D0D0D0",
"^ c #D2D2D2",
"/ c #D7D7D7",
"( c gray85",
") c gray86",
"_ c gainsboro",
"` c #DFDFDF",
"' c gray90",
"] c gray93",
"[ c white",
/* pixels */
";;;;;;;;;;;;;;;;;;;;;;;;;;;;;;;;;;;;;;;;;;;;;;;;;;",
";[[[[[[[[[[[[[[[[[[[[[[[[[[[[[[[[[[[[[[[[[[[[[[[[;",
";[[[[[[[[[[[[[[[[[[[[[[[[[[[[[[[[[[[[[[[[[[[[[[[[;",
";[[[[[[[[[[[[[[[[[[[[[[[[[[[[[[[[[[[[[[[[[[[[[[[[;",
";[[[[[[[[[[[[[[[[[[[[[[[[[[[[[[[[[[[[[[[[[[[[[[[[;",
";[[[[[[[[[[[[[[[[[[[[[[[))[[[[[[[[[[[[[[[[[[[[[[[;",
";[[[[[[[[[[[[[[[[[[[[[[[77[[[[[[[[[[[[[[[[[[[[[[[;",
";[[[[[[[[[[[[[[[[[[[[[[),,)[[[[[[[[[[[[[[[[[[[[[[;",
";[[[[[[[[[[[[[[[[[[[[[[7NN7[[[[[[[[[[[[[[[[[[[[[[;",
";[[[[[[[[[[[[[[[[[[[[[),CC,)[[[[[[[[[[[[[[[[[[[[[;",
";[[[[[[[[[[[[[[[[[[[[[7NCCN7[[[[[[[[[[[[[[[[[[[[[;",
";[[[[[[[[[[[[[[[[[[[[),CCCC,)[[[[[[[[[[[[[[[[[[[[;",
";[[[[[[[[[[[[[[[[[[[[7NCCCCN7[[[[[[[[[[[[[[[[[[[[;",
";[[[[[[[[[[[[[[[[[[[),CCCCCC,)[[[[[[[[[[[[[[[[[[[;",
";[[[[[[[[[[[[[[[[[[[7NCCCCCCN7[[[[[[[[[[[[[[[[[[[;",
";[[[[[[[[[[[[[[[[[[),CCCCCCCC,)[[[[[[[[[[[[[[[[[[;",
";[[[[[[[[[[[[[[[[[[7NCCCCCCCCN7____][[[[[[[[[[[[[;",
";[[[[[[['vvvvvvvvvM,CCCCCCCCCC,v--9/[[[[[[[[[[[[[;",
";[[[[[[[_:OOOOOOO$uNCCCCCCCCCCNv  &/[)xvvv[[[[[[[;",
";[[[[[[[_=       OtCCCCCCCCCCCCvera/[)&  v[[[[[[[;",
";[[[[[[[_=  9vvvvvfLDDDHZCTDDDYvvvv)^M&  vQ![[[[[;",
";[[[[[[[_=  e][[_<CTiOO2IVxOOlRvOO:)x$X  OOv[[[[[;",
";[[[[[[[)=  e^))uBCCh+ XdH= $FCv  &/v$X  OOv[[[[[;",
";[[[[[[[_=  @&&&5ACCEs. =l..cVCv  &)^v&  vM![[[[[;",
";[[[[[[[_*      &PCCCK= .$ >ICCv  &/[)&  v[[[[[[[;",
";[[[[[[[)*  9vvvvICCCCxX  ogZCCv  &![)&  v[[[[[[[;",
";[[[[[[[_=  e]7NCCCCCEs.  .sECCv  &u[)&  v[[[[[[[;",
";[[[[[[[_=  e^<CCCCCCh+ :X +hCCv  &w))&  v[[[[[[[;",
";[[[[[[[_=  0nvvvvvCT4 Ov>  0UCv  &y9)=  xMM[[[[[;",
";[[[[[[[_=        vVgX 0WgO ocZv  &T,^q  .Oc[[[[[;",
";[[[[[[[_:OOOOOOOOmS1O$hCW0OO6LvOO;IN8v3OO+v[[[[[;",
";[[[[[[['QQvpFFFFhGJDjjECCLFFFJJDDjWC,)_MvM`[[[[[;",
";[[[[[[[[[[8NCCCCCCCCCCCCCCCCCCCCCCCCN8[[[[[[[[[[;",
";[[[[[[[[[),CCCCCCCCCCCCCCCCCCCCCCCCCC,)[[[[[[[[[;",
";[[[[[[[[[8NCCCCCCCCCCCCCCCCCCCCCCCCCCN7[[[[[[[[[;",
";[[[[[[[[)>CCCCCCCCCCCCCCCCCCCCCCCCCCCC,)[[[[[[[[;",
";[[[[[[[[8NCCCCCCCCCCCCCCCCCCCCCCCCCCCCN8[[[[[[[[;",
";[[[[[[[),CCCCCCCCCCCCCCCCCCCCCCCCCCCCCC<)[[[[[[[;",
";[[[[[[[8NCCCCCCCCCCCCCCCCCCCCCCCCCCCCCCN8[[[[[[[;",
";[[[[[[),CCCCCCCCCCCCCCCCCCCCCCCCCCCCCCCC<)[[[[[[;",
";[[[[[[8NCCCCCCCCCCCCCCCCCCCCCCCCCCCCCCCCN8[[[[[[;",
";[[[[[),CCCCCCCCCCCCCCCCCCCCCCCCCCCCCCCCCC<)[[[[[;",
";[[[[[8NCCCCCCCCCCCCCCCCCCCCCCCCCCCCCCCCCCN8[[[[[;",
";[[[[)>CCCCCCCCCCCCCCCCCCCCCCCCCCCCCCCCCCCC<)[[[[;",
";[[[[0;;;;;;;;;;;;;;;;;;;;;;;;;;;;;;;;;;;;;;9[[[[;",
";[[[[[[[[[[[[[[[[[[[[[[[[[[[[[[[[[[[[[[[[[[[[[[[[;",
";[[[[[[[[[[[[[[[[[[[[[[[[[[[[[[[[[[[[[[[[[[[[[[[[;",
";[[[[[[[[[[[[[[[[[[[[[[[[[[[[[[[[[[[[[[[[[[[[[[[[;",
";[[[[[[[[[[[[[[[[[[[[[[[[[[[[[[[[[[[[[[[[[[[[[[[[;",
";;;;;;;;;;;;;;;;;;;;;;;;;;;;;;;;;;;;;;;;;;;;;;;;;;"
};
