/* XPM */
static char *c6bbe336f6cf42fac225c13b9586a990MTOQEr9J8JbU9XP9[] = {
/* columns rows colors chars-per-pixel */
"52 50 161 2 ",
"   c None",
".  c #46283C",
"X  c #4B2B3A",
"o  c #532F37",
"O  c #522F38",
"+  c #4A3B3C",
"@  c #573136",
"#  c #593235",
"$  c #623732",
"%  c #663931",
"&  c #53443A",
"*  c #5A4538",
"=  c #52493C",
"-  c #42573F",
";  c #4C503C",
":  c #433A40",
">  c #366546",
",  c #3D6349",
"<  c #3B6C4C",
"1  c #3E734E",
"2  c #3F7650",
"3  c #414A43",
"4  c #415547",
"5  c #485444",
"6  c #455E45",
"7  c #495B43",
"8  c #455049",
"9  c #405E49",
"0  c #4C5E52",
"q  c #416649",
"w  c #487447",
"e  c #437149",
"r  c #42784F",
"t  c #417651",
"y  c #437C54",
"u  c #457E58",
"i  c #5A7D5A",
"p  c #458157",
"a  c #4B8353",
"s  c #4E8956",
"d  c #468359",
"f  c #48865B",
"g  c #4A8A5D",
"h  c #518650",
"j  c #598E51",
"k  c #528D5B",
"l  c #569157",
"z  c #5D9454",
"x  c #559259",
"c  c #5A955A",
"v  c #57995F",
"b  c #5B9B5E",
"n  c #609652",
"m  c #689D53",
"M  c #629E5C",
"N  c #689E5C",
"B  c #6BA053",
"V  c #64A15B",
"C  c #6AA55A",
"Z  c #6FA958",
"A  c #75AC56",
"S  c #78AF56",
"D  c #71A45B",
"F  c #73AB5A",
"G  c #79AD5E",
"H  c #7AB055",
"J  c #4D8E61",
"K  c #4D8F64",
"L  c #4C8D62",
"P  c #528F60",
"I  c #4C9060",
"U  c #4C9061",
"Y  c #4C9161",
"T  c #4F9361",
"R  c #4D9262",
"E  c #4E9362",
"W  c #4E9064",
"Q  c #4E9065",
"!  c #4F9165",
"~  c #4F9265",
"^  c #4F9366",
"/  c #4D9263",
"(  c #509461",
")  c #519461",
"_  c #519561",
"`  c #529561",
"'  c #529660",
"]  c #539660",
"[  c #549660",
"{  c #549760",
"}  c #559760",
"|  c #509366",
" . c #509367",
".. c #509467",
"X. c #519467",
"o. c #519567",
"O. c #549664",
"+. c #519463",
"@. c #5B9760",
"#. c #569860",
"$. c #5E9D64",
"%. c #519568",
"&. c #519768",
"*. c #529769",
"=. c #52976A",
"-. c #529669",
";. c #52986A",
":. c #53996B",
">. c #539A6B",
",. c #549A6B",
"<. c #559C6B",
"1. c #579D6B",
"2. c #569C6B",
"3. c #549A6C",
"4. c #549B6C",
"5. c #549B6D",
"6. c #559C6C",
"7. c #549C6D",
"8. c #559C6D",
"9. c #569C6C",
"0. c #569D6C",
"q. c #579D6C",
"w. c #579C6C",
"e. c #559C6D",
"r. c #589D6B",
"t. c #589E6B",
"y. c #599E6B",
"u. c #5A9F6B",
"i. c #5C9F6A",
"p. c #599E6B",
"a. c #5AA06A",
"s. c #5CA069",
"d. c #5DA069",
"f. c #5EA169",
"g. c #5FA269",
"h. c #5DA06A",
"j. c #5EA169",
"k. c #65A467",
"l. c #67A567",
"z. c #67A666",
"x. c #65A567",
"c. c #69A765",
"v. c #68A766",
"b. c #69A766",
"n. c #6AA766",
"m. c #6AA765",
"M. c #6BA865",
"N. c #6BA965",
"B. c #6BA866",
"V. c #6EAA65",
"C. c #6FAA65",
"Z. c #6DA965",
"A. c #61A268",
"S. c #60A268",
"D. c #63A368",
"F. c #62A368",
"G. c #74AB61",
"H. c #73AD63",
"J. c #76AE62",
"K. c #70AB64",
"L. c #72AC63",
/* pixels */
"8.8.8.8.8.8.8.8.8.8.8.8.8.8.8.8.8.8.4.%.f ! :.8.8.8.8.8.8.8.8.8.8.8.8.8.8.8.8.8.8.8.8.8.8.8.8.4.%.L L   ",
"8.8.8.<.8.<.8.8.8.8.8.8.8.8.8.8.8.8.4.K J J :.8.8.8.8.8.8.8.8.8.8.<.8.<.8.8.8.8.8.8.8.8.8.8.8.4.+.L L   ",
"8.<.8.8.i.D.<.8.8.8.8.8.8.8.8.8.8.8.4.4.! >.8.7.8.8.8.:.8.8.8.8.8.i.D.u.8.8.8.8.8.8.8.8.8.8.8.8.8.%.%.  ",
"8.8.u.l.l.K.8.8.8.8.8.8.8.8.8.8.8.8.8.8.8.8.! J J J J J %.8.8.t.D.l.V.u.8.8.8.8.8.8.8.8.8.8.8.8.8.8.8.  ",
"8.8.D.J.l.B.8.8.8.8.8.8.8.8.8.8.8.8.8.8.8.L f f c m c f f L 4.s.V.B.n.u.8.8.8.8.8.8.8.8.8.8.8.8.8.8.8.  ",
"8.8.i.K.u.s.<.8.8.8.8.8.8.8.8.8.8.8.4.4.d f R C H H V ! R d d u.n.D.i.8.8.8.8.8.8.8.8.8.8.8.8.8.8.8.8.  ",
"8.<.<.s.8.8.8.8.8.8.8.8.8.8.8.8.8.8.! d x Z S H C V V { R R f d +.<.8.8.8.8.8.8.8.8.8.8.8.8.8.8.8.8.8.  ",
"8.8.8.8.8.8.8.8.8.8.8.8.8.8.8.8.8.8.d f C S H H C V V { R E E f f 8.8.8.8.8.8.8.8.8.8.8.8.8.8.8.8.8.8.  ",
"8.8.8.8.8.8.8.8.8.8.8.8.8.8.8.8.>.p f C H H S M V V V V Y R f 1 2 d 7.8.8.8.8.8.8.8.8.8.8.8.8.8.8.8.8.  ",
"8.8.8.8.8.8.8.8.8.8.8.8.8.8.8.8.p g R M M V A Z V V b Y R R Y g t 1 d 4.8.8.8.8.8.8.8.8.8.8.8.8.8.8.8.  ",
"8.>.! >.8.8.8.8.8.8.8.8.8.8.4.4.d f M v v V M v v v Y Y R R g 2 t 1 d 8.8.8.8.8.8.8.8.8.8.8.8.8.8.8.8.  ",
":.L L L :.8.8.8.8.8.8.8.8.8.4.d f V H H j d I I I Y Y Y d 2 2 2 1 1 1 d 8.8.8.8.8.8.8.8.8.8.8.8.8.8.8.  ",
":.! L ! >.4.8.8.8.8.8.8.8.8.8.d f v Z H Z x p p p p p p g R R g t 1 1 f 8.8.8.8.8.8.8.8.8.8.8.8.8.8.8.  ",
":.>.%.>.4.4.8.8.8.8.8.8.8.8.f f M A V Z M M b R b Z Z Z Z Z Z c p p 1 t f 8.8.8.8.8.8.8.8.8.8.8.8.8.8.  ",
"8.4.4.4.8.8.8.8.8.8.8.8.8.d f ( C H H V R E E V A S S S S A z p f y d 1 2 d 8.8.8.8.8.8.8.8.8.8.8.8.8.  ",
"8.8.8.8.8.8.8.8.8.8.8.8.8.d f b V C Z H M b b Y Y b V V x d p p d d y 2 d 8.8.8.8.8.8.8.8.8.8.8.8.8.8.  ",
"<.8.8.8.8.8.8.8.8.8.8.8.f f R R E p g s g E E Y Y Y ' ' Y Y Y I Y d 2 1 d 7.7.8.8.8.8.8.<.<.<.8.8.8.8.  ",
"i.H.u.8.8.8.8.8.8.8.8.8.f g V V ' R d d p d p p E E g Y R R E Y f p d 1 1 p %.7.8.8.8.8.8.D.V.u.8.8.8.  ",
"G G.8.8.8.8.8.8.8.8.8.8.f z Z V V v E g p y y 2 2 d d g R R Y R R g d p 1 1 d 7.8.8.8.8.8.F.C.u.u.4.8.  ",
"C P 4.8.8.8.8.8.8.8.8.t.d z H S V V V E E p 1 1 1 1 d E R R R R R R R d 1 1 f 7.8.8.8.8.<.s.H.n.B.u.8.  ",
"L =.4.4.8.8.8.8.8.8.8.8.f p c A H C V V v E R R R v x l v b v R R p d I p 1 1 f 8.8.8.8.8.s.l.l.B.u.8.  ",
"4.w.8.w.8.8.8.8.8.8.8.L t 1 r s l l V V ' E E f y a h h h h a y 2 2 d p y 1 1 p E 8.8.8.8.8.8.D.F.<.8.  ",
"8.8.8.8.8.8.8.8.8.8.f d V H z 1 p p p d p R R R R d 1 1 1 1 1 2 p d d f p f 1 2 K 8.8.8.8.8.8.8.8.8.8.  ",
"8.8.8.8.8.8.8.8.8.8.s z H H m l s p p p f R R R R R E f p p f E g d p d 2 1 1 1 k s.8.8.8.8.8.8.8.8.8.  ",
"8.8.8.8.8.8.8.8.8.<.x t s V H Z V V E E E E E E R R R R R R R R Y Y d p p 1 1 1 k l.i.8.8.8.8.8.8.8.8.  ",
"8.8.8.8.8.8.8.8.8.<.k 2 y J b A C V b ' V H S H C ' R R R R R R Y f p p 1 p p 1 k k.t.8.8.8.8.8.8.8.8.  ",
"8.8.8.8.8.8.8.8.7.! y 1 1 2 f { b v Y ' C H H Z b v E R R R f p 2 y 2 1 1 1 1 1 k w.8.8.8.8.8.8.8.8.8.  ",
"8.8.8.8.8.8.8.8.7.J 1 1 1 1 1 1 1 2 p E E E E E Y E E E R R R R R E R R Y Y d 1 1 f 8.8.8.8.8.8.8.8.8.  ",
"8.8.8.8.8.8.8.8.7.g 2 p s b I g Y E E E Y Y E Y g d g d g v V b M M b R g d y 1 1 L 4.4.8.8.8.8.4.%.%.  ",
"8.8.8.8.8.8.8.8.7.Y s A C b V d 2 2 d E Y Y g 2 2 1 1 p b A C v b E f 2 t 1 1 1 1 f w.4.8.8.8.4.%.K R   ",
"8.8.8.8.8.8.8.8.7.R h H H Z ' g 2 1 2 1 1 1 1 y g g g g g g g g g p t y f E d t < L 4.8.8.8.4.4.%.L L   ",
"8.8.8.t.i.k.4.8.7.Y a V H H A C b p 1 1 1 1 1 1 1 1 1 2 g g g f f l c b C b R u 1 L 8.8.4.4.t.4.4.%.%.  ",
"8.4.i.B.l.V.4.8.8. .u R b S S H H C R R R E ( ( ( E E E Y R V V ! V A S M Y J p 1 f 8.8.8.8.8.8.<.4.4.  ",
"8.4.S.J.l.K.t.4.4.4.=.f d a n V V V b R E { V V V b R R b V b Y b { E f f t 1 1 d E 8.8.8.8.8.8.8.8.8.  ",
"8.8.j.J.u.t.8.8.8.8.8.4.K 2 2 2 p ( ( ! R E E f 1 p R R R R R R Y f 2 2 1 1 2 f :.8.8.8.8.8.8.8.8.8.8.  ",
"8.4.4.t.8.8.8.8.8.8.8.8.4.%.d y 1 1 t f f f p 1 1 1 1 1 1 1 1 2 1 1 1 1 1 y ! 8.8.8.8.8.8.8.8.8.8.8.8.  ",
"8.8.8.8.8.8.8.8.8.8.8.8.4.4.8.4. .L 1 < 2 t t 9 : : : : : 4 1 d ! ! ! ! ! >.8.8.8.8.8.8.8.8.8.8.8.8.8.  ",
"8.8.4.4.8.8.8.8.8.8.8.8.4.4.8.8.8.4.| y t 5 X X X X X . X 0 7.7.8.7.8.8.8.8.8.8.8.8.8.8.8.8.8.8.8.8.8.  ",
"8.4.4.4.8.8.8.8.8.8.8.8.8.8.8.8.4.w.w.4.i % % % @ O @ O @ 8 u K 7.>.7.4.8.8.8.8.8.8.8.8.8.8.8.8.8.8.8.  ",
"4.:. .4.4.8.8.8.8.8.8.8.8.8.4.4.K < < < 5 % % % % % # @ @ . 3 > < < < f >.:.8.8.8.8.8.8.8.8.8.8.8.8.8.  ",
":.K L  .4.8.8.8.8.8.8.8.8.4.u < < < q = O O % % % % @ O @ . + 4 > < < < < u  .4.8.8.8.8.8.8.8.8.8.8.8.  ",
":.K L P 4.8.8.8.8.8.8.8.=.< < < < < < < < 7 % # O % # . . . . @ ; < < < < < < K 8.8.8.8.8.8.8.8.8.8.8.  ",
":.:. .=.4.4.8.8.8.8.8.8.4.u < < < < < < 7 $ # O X O . . . X & 6 > < < < < < y | 8.8.8.8.8.8.8.8.8.8.8.  ",
"8.:.4.4.8.8.8.8.8.8.8.8.8.8. .< < < < < 6 * , , , , , 9 > ; X 3 < < < < < f 4.8.8.8.8.8.8.8.8.8.8.8.8.  ",
"8.8.8.8.8.8.8.8.8.8.8.8.8.8.8.8.:.u u u y < < < < < e w < < < t u u u K 8.8.8.8.8.8.8.8.8.8.8.8.8.8.8.  ",
"4.t.8.8.8.8.8.8.8.8.8.8.8.8.8.w.t.8.4.4.:. . .! ! | $.D $.P O.=.4.4.4.4.8.8.8.8.8.8.8.8.8.8.u.8.8.8.8.  ",
"A.K.t.8.8.8.8.8.8.8.8.8.8.8.8.4.l.l.8.8.4.4.8.8.4.u.k.J.m.i.l.A.8.8.4.4.8.8.8.8.8.8.8.8.8.s.B.u.8.8.8.  ",
"G Z.t.8.8.8.8.8.8.8.8.8.8.8.8.4.K.l.s.8.8.8.8.8.4.<.u.$.N N G.A.8.8.w.4.8.8.8.8.8.8.8.8.<.D.K.s.u.8.8.  ",
"N +.=.w.w.t.8.8.8.8.8.8.8.8.8.4.C.l.Z.D.8.8.8.8.8.8.4.%.c N @.%.4.8.8.8.8.8.8.8.8.8.8.8.8.D.K.n.n.t.8.  ",
"L =.4.4.4.4.8.8.8.8.8.8.8.8.8.4.k.j.K.D.8.8.8.8.8.8.4.:.! L %.4.4.8.8.8.8.8.8.8.8.8.8.8.4.i.l.l.V.t.8.  "
};
