/* XPM */
static char *_0b0056a47fa4427950c9fff50c56a1anVQxdTwkaz7ll2UM[] = {
/* columns rows colors chars-per-pixel */
"52 50 179 2 ",
"   c None",
".  c #1B1626",
"X  c #2A1D2B",
"o  c #231A28",
"O  c #35232E",
"+  c #38262C",
"@  c #2D2B3B",
"#  c #392631",
"$  c #3F2832",
"%  c #312938",
"&  c #322836",
"*  c #33303F",
"=  c #2E2326",
"-  c #4D342E",
";  c #55392F",
":  c #452A32",
">  c #4F2F34",
",  c #502F34",
"<  c #533134",
"1  c #5D3536",
"2  c #5F3838",
"3  c #633736",
"4  c #663937",
"5  c #6D3C38",
"6  c #6A3A37",
"7  c #743F39",
"8  c #3F4B3C",
"9  c #5A432B",
"0  c #5C5F3E",
"q  c #62422F",
"w  c #6A502E",
"e  c #7C572B",
"r  c #624233",
"t  c #69473A",
"y  c #624A3A",
"u  c #7C453B",
"i  c #77453B",
"p  c #7A5233",
"a  c #785C37",
"s  c #615638",
"d  c #6E613B",
"f  c #74633E",
"g  c #756C3F",
"h  c #425B45",
"j  c #624E49",
"k  c #624F54",
"l  c #6F575B",
"z  c #566A48",
"x  c #526B4B",
"c  c #7A6340",
"v  c #7A6758",
"b  c #637C51",
"n  c #6B7648",
"m  c #5E5D6D",
"M  c #736B74",
"N  c #835D36",
"B  c #926232",
"V  c #A06E2F",
"C  c #A67033",
"Z  c #B47C31",
"A  c #9E5F49",
"S  c #856F43",
"D  c #9F7449",
"F  c #9F765B",
"G  c #997D59",
"H  c #9E7E56",
"J  c #A7634A",
"K  c #A17846",
"L  c #A07E54",
"P  c #9F7969",
"I  c #9F7B76",
"U  c #897670",
"Y  c #AC7B6A",
"T  c #5D965D",
"R  c #679D5C",
"E  c #6DA35E",
"W  c #78AD5F",
"Q  c #4D8D62",
"!  c #528E62",
"~  c #4F9165",
"^  c #529366",
"/  c #5D9F67",
"(  c #529668",
")  c #559C6D",
"_  c #5A9E6B",
"`  c #5B9563",
"'  c #669A66",
"]  c #6A9E66",
"[  c #62966A",
"{  c #609E69",
"}  c #719E64",
"|  c #5DA169",
" . c #66A567",
".. c #69A765",
"X. c #6DA965",
"o. c #61A268",
"O. c #6AA46B",
"+. c #72AC63",
"@. c #76A164",
"#. c #7AB162",
"$. c #6AA775",
"%. c #6AA87E",
"&. c #63A57A",
"*. c #CD8C32",
"=. c #CE9137",
"-. c #E49C33",
";. c #FEAE34",
":. c #F0A433",
">. c #E6A338",
",. c #93914B",
"<. c #9E8057",
"1. c #9B8642",
"2. c #A78C47",
"3. c #A8964A",
"4. c #B49648",
"5. c #A28256",
"6. c #87A55D",
"7. c #96A357",
"8. c #B4A54E",
"9. c #B3AA50",
"0. c #B4B85B",
"q. c #ABB45C",
"w. c #90837B",
"e. c #AC9578",
"r. c #9BB060",
"t. c #A7BC63",
"y. c #CE9F42",
"u. c #C9A845",
"i. c #CCAB4A",
"p. c #CEB755",
"a. c #C7B553",
"s. c #D5BD56",
"d. c #E6B949",
"f. c #CEBC7A",
"g. c #B3C666",
"h. c #B6CA75",
"j. c #C9C35B",
"k. c #E6CF5B",
"l. c #E1C759",
"z. c #ECD25C",
"x. c #C9CF64",
"c. c #ECD46D",
"v. c #7F8290",
"b. c #79AC86",
"n. c #99989F",
"m. c #95949D",
"M. c #B98F81",
"N. c #8EB99A",
"B. c #B8A68D",
"V. c #8B91A2",
"C. c #969AA8",
"Z. c #B1B1B7",
"A. c #B4CC8D",
"S. c #B6CF97",
"D. c #99C4A8",
"F. c #B4D0A3",
"G. c #B4D4BF",
"H. c #BDD6B0",
"J. c #AECEAE",
"K. c #CEC197",
"L. c #CCD685",
"P. c #EDDB98",
"I. c #E6D586",
"U. c #CBDAA1",
"Y. c #CEC7BC",
"T. c #E6DAA8",
"R. c #EDE0BB",
"E. c #D2CBCC",
"W. c #E5DAD4",
"Q. c #CEE0C1",
"!. c #CAE0D1",
"~. c #D8E4D9",
"^. c #EDE1C3",
"/. c #E6E1D4",
"(. c #CFD8E4",
"). c #EDE7E6",
"_. c #F2ECE9",
"`. c #EBF1EC",
"'. c #F7F8FA",
/* pixels */
") ) ) ) ) ) ) ) ) ) ) ) ) ) ) ) ) ) ) ( Q Q ) ) ) ) ) ) ) ) ) ) ) ) ) ) ) ) ) ) ) ) ) ) ) ) ) ) ) Q Q   ",
") ) ) ) ) ) ) ) ) ) ) ) ) ) ) ) &.) ) ~ Q Q ( ) ) ) ) ) ) ) ) ) ) ) ) ) ) ) ) ) ) ) ) ) ) ) ) ) ~ Q ~   ",
") ) ) _ | o.) ) ) ) ) ) ) ) ) ) ) ) ) ) ~ ) ) ) ) ) ) ) ) ) ) ) | | | ) ) ) ) ) ) ) ) ) ) ) ) ) ) ( ~   ",
") ) _  . .X.) ) ) ) ) ) ) ) ) ) ) ) ) ) ) ) ) ) ) ) ) ) ) ) ) ) o.O.X.| ) ) ) ) ) ) ) ) ) ) ) ) ) ) )   ",
") ) o.+. .X.) ) ) ) ) ) ) ) ) ) ) ) ) ) ) ) ) ) ) ) ) ) ) ) ) _ X.X. .| ) ) ) ) ) ) ) ) ) ) ) ) ) ) )   ",
") ) | +.| _ ) ) ) ) ) ) ) ) ) ) ) ) ) ) ) ) ) ) ) ) ) ) ) ) ) _ X.o.| ) ) ) ) ) ) ) ) ) ) ) ) ) ) ) )   ",
") ) ) | ) ) ) ) ) ) ) ) ) ) ) ) ) ) ) ) ) ) ) | ) ) ) ) ) ) ) ) ) ) ) ) ) ) ) ) ) ) ) ) ) ) ) ) ) ) )   ",
") ) ) ) ) ) ) ) ) ) ) ) ) ) ) ) ) ) ) ) ) ) | o.o.) ) ) ) ) ) ) ) ) ) ) ) ) ) ) ) ) ) ) ) ) ) ) ) ) )   ",
") ) ) ) ) ) ) ) ) ) ) ) ) ) ) ) ) ) ) ) ) ) ....O.| ) ) ) ) ) ) ) ) ) ) ) ) ) ) ) ) ) ) ) ) ) ) ) ) )   ",
") ) ) ) ) ) ) ) ) ) ) ) ) ) ) ) ) ) ) ) ) | | | | ) ) ) ) ) ) ) ) ) ) ) ) ) ) ) ) ) ) ) ) ) ) ) ) ) )   ",
") ) ~ ) ) ) ) ) ) ) ) ) ) ) ) ) ) ) ) ) ) ) ) | ) ) ) ) ) ) ) ( ( ) ) ) ) ) ) ) ) ) ) ) ) ) ) ) ) ) )   ",
") Q Q Q ( ) ) ) ) ) ) ) ) ) ) ) ) ) ) ) ) ) ) ) ) ) ) ) ) ( ~ ~ Q ( ) ) ) ) ) ) ) ) ) ) ) ) ) ) ) ) )   ",
"( Q Q ~ ) ) ) ) ) ) ) ) ) ) ) ) ) ) ) ) ) ) ) ) ) ) ) ) ) ) ~ ~ ~ ) ) ) ) ) ) ) ) ) ) ) ) ) ) ) ) ) )   ",
") ) ~ ( ) ) ) ) ) ) ) ) ) ) ) ) ) ) ) ) ) ) ) ) ) ) ) ) ) ) ( ( ) ) ) ) ) ) ) ) ) ) ) ) ) ) ) ) ) ) )   ",
") ) ) ) ) ) ) ) ) ) ) ) ) ) ) ) ) ) ) ) ) ) ) ) ) ) | ) ) ) ) ) ) ) ) ) ) ) ) ) ) ) ) ) ) ) ) ) ) ) )   ",
") ) ) ) ) ) ) ) ) ) ) ) ) ) ) ) ) ) ) ) ) ) ) ) ) ) |  .) ) ) ) ) ) ) ) ) ) ) ) ) ) ) ) ) ) ) ) ) ) )   ",
") ) ) ) ) ) ) ) ) &.D.D.&.) ) ) ) ) ) ) ) ) ) ) ) ) O.#. .) ) ) ) ) ) ) ) ) ) b.J.N.) ) ) ) ) ) ) ) )   ",
"/ +.) ) ) ) ) ) ) %.!.~.b.[ [ [ X.] [ [ [ [ [ [ [ [ } 6.@.[ @.] [ [ [ [ [ [ [ N.`.G.) ) ) o.X.| ) ) )   ",
"#.+.) ) ) ) ) ) ) %.!.W.e.G G G 5.<.<.G G G G G G G G H H 5.5.<.G G F L G G G B.`.G.) ) ) o.+._ _ ) )   ",
"E ! ) ) ) ) ) ) ) %.!.W.Y A J J J J J J J J J J J J J J J J J J J J J J J J A M._.G.) ) ) o.X...X.) )   ",
"Q ( ) ) ) ) ) ) ) b.!.E.l 3 u u u u u u u u u u u u u u u u u u u u u u u j 2 U ).G.) ) ) _ O. .X.| )   ",
"( ) ) ) ) ) ) ) ) $.U.K.j < 5 i 7 i 7 7 7 7 7 7 7 i 7 7 7 7 7 7 7 7 7 7 7 5 > v T.F.) ) ) ) ) | o.) )   ",
") ) ) ) ) ) ) ) ) O.x.a.y < 5 7 7 7 7 7 7 7 7 7 7 7 7 7 7 7 7 7 7 7 7 7 7 5 > c l.g.) ) ) ) ) ) ) ) )   ",
") ) ) ) ) ) ) ) ) $.U.K.j < 5 7 7 7 7 7 7 7 7 7 7 7 7 7 7 7 7 7 7 7 7 7 7 5 > v T.S.) ) ) ) ) ) ) ) )   ",
") ) ) ) ) ) ) ) ) $.Q.Y.k < 6 5 7 7 7 7 7 7 7 7 7 7 7 7 7 7 7 7 7 7 7 i 5 4 > v W.U.) ) ) ) ) ) ) ) )   ",
") ) ) ) ) ) ) ) ) $.L.f.j : > 3 7 i 7 7 7 7 7 7 7 7 7 7 7 7 7 7 7 7 7 7 1 , : v I.A._ ) ) ) ) ) ) ) )   ",
") _ ) ) ) ) ) ) ) O.j.i.y $ $ , 3 3 3 3 3 3 3 3 3 3 3 3 3 3 3 3 3 3 3 3 , : $ a l.0.) ) ) ) ) ) ) ) )   ",
") ) ) ) ) ) ) ) ) ] i.*.r $ $ : : : : : : : : : : : : : : : : : : : : : : + $ p >.9.) ) ) ) ) ) ) ) )   ",
") ) ) ) ) ) ) ) ) ] u.-.C B B B B B B B B B B N - X = ; B B B B B B B B B B B Z :.8.) ) ) ) ) ) ) ( (   ",
") ) ) ) ) ) ) ) ) ] u.;.;.;.;.;.;.;.;.;.;.;.;.-.q . . e ;.;.;.;.;.;.;.;.;.;.;.;.;.8.) ) ) ) ) ) ( ~ Q   ",
") ) ) ) ) ) ) ) ) ` g e e e e e e e e e e e e N w.n.n.U e e e e N e e e e e e e e n ) ) ) ) ) ) ( Q Q   ",
") ) ) ) | O.) ) ) Q 8 = o . . . . . . . . . . * Z.'.'.m.. . . . . . . . . . . o = h ) ) ) ) ) ) ) ( (   ",
") ) | O. .X.) ) ) ' 2.V - + + O + O O O O O o % C.(.(.v.. X O O O O O O O O O q Z ,.) ) ) ) ) ) ) ) )   ",
") ) | +. .X.) ) ) ..u.*.r : > > , , , , > > O % M V.V.m o $ > > > > > > > > : p -.8.) ) ) ) ) ) ) ) )   ",
") ) | +.) _ ) ) ) ] u.*.r > 6 5 5 5 5 5 5 5 , # % @ @ @ # < 5 7 5 5 5 5 5 4 > u -.8.) ) ) ) ) ) ) ) )   ",
") ) ) | ) ) ) ) ) ] a.y.r < 5 7 7 7 7 7 7 7 3 , O X X # < 4 7 7 7 7 7 7 7 5 < p d.0.) ) ) ) ) ) ) ) )   ",
") ) ) ) ) ) ) ) ) $.x.p.y < 5 i 7 7 7 7 7 7 7 5 > $ $ < 7 7 7 7 7 7 7 7 7 5 , c k.g.) ) ) ) ) ) ) ) )   ",
") ) ) ) ) ) ) ) ) O.x.p.y < 5 7 7 7 7 7 7 7 7 5 3 1 1 4 7 7 7 7 7 7 7 7 7 5 , c k.g.) ) ) ) ) ) ) ) )   ",
") ) ) ) ) ) ) ) ) { q.4.c t 7 7 7 7 7 7 7 7 5 i 7 7 7 7 7 7 7 7 7 7 7 7 7 5 j S a.r.) ) ) ) ) ) ) ) )   ",
") ) ~ ) ) ) ) ) ) ^ z f 8.2.u 7 7 7 7 7 7 7 5 i 7 7 7 7 7 7 7 7 7 7 7 7 7 N 4.2.0 x ) ) ) ) ) ) ) ) )   ",
") ~ Q ~ ) ) ) ) ) ` d d 2.3.K D D P I I I I I I I I I I I I I I P D F I L K 3.1.w z ) ) ) ) ) ) ) ) )   ",
"( Q Q Q ) ) | ) ) [ 4.Z 9 g l.z.c.R.).).).).).).).).).).).).).).^.c.P.).P.s.d w *.3.) ) ) ) ) ) ) ) )   ",
") ( ~ ( ) ) ) ) ) { 7.,.h b t.g.h.F.G.G.G.G.G.G.G.G.G.G.G.G.G.G.J.h.A.G.A.t.b z 3.6.) ) ) ) ) ) ) ) )   ",
") ) ) ) ) ) ) ) ) ) ) ) | ) ) _ ) ) ) ) ) ) ) ) ) _ ) ) ) ) ( ) ( ( ) ) ) ) ) ) ) ) ) ) ) ) ) ) ) ) )   ",
") ) ) ) ) ) ) ) ) ) ) ) ) ) ) ) ) ) ) ) ) ) ) ) ) ) |  ._ ) ) ) ) ) ) ) ) ) ) ) ) ) ) ) ) ) ) ) ) ) )   ",
") | ) ) ) ) ) ) ) ) ) ) ) ) ) ) | | ) ) ) ) ) ) ) ) ..W o.) _ _ ) ) ) ) ) ) ) ) ) ) ) ) ) ) _ ) ) ) )   ",
"| X.) ) ) ) ) ) ) ) ) ) ) ) ) ) ..o.) ) ) ) ) ) ) ) o.#. ./ X.| ) ) ) ) ) ) ) ) ) ) ) ) ) | .._ ) ) )   ",
"W ..) ) ) ) ) ) ) ) ) ) ) ) ) ) X. .| ) ) ) ) ) ) ) / | R E W | ) ) ) ) ) ) ) ) ) ) ) ) ) o.+.| | ) )   ",
"E ~ ( ) ) ) ) ) ) ) | ) ) ) ) ) X. .X.| ) ) ) ) ) ) ) ^ T R T ( ) ) ) ) ) ) ) ) ) ) ) ) ) o.+....._ )   ",
"Q ( ) ) ) ) ) ) ) ) ) ) ) ) ) ) o.| +.| ) ) ) ) ) ) ) ) ^ Q ~ ) ) ) ) ) ) ) ) ) ) ) ) ) ) _  .O.X.) )   "
};
