/* XPM */
static char *_89eb30a1b174e37b0184343c517c945pCAaihrNIkRypSrw[] = {
/* columns rows colors chars-per-pixel */
"50 50 89 1 ",
"  c gray44",
". c #747471",
"X c #767671",
"o c gray46",
"O c #7B7A71",
"+ c #7D7C72",
"@ c #787875",
"# c gray48",
"$ c #7E7E7E",
"% c #828173",
"& c #818077",
"* c #858374",
"= c #8A8875",
"- c #8D8B75",
"; c #818078",
": c #8B897B",
"> c #938F76",
", c #9A9677",
"< c #9C9878",
"1 c #A29E79",
"2 c #A7A27A",
"3 c #A5A07C",
"4 c #ACA77B",
"5 c #AFA97B",
"6 c #B1AB7B",
"7 c #B7B17D",
"8 c #BAB37D",
"9 c #B8B17E",
"0 c #BEB77E",
"q c #BFB87E",
"w c #C0B97F",
"e c #C4BC7F",
"r c gray51",
"t c #848481",
"y c #868682",
"u c #848484",
"i c #8A8A83",
"p c #898989",
"a c #8C8C89",
"s c #8D8D8D",
"d c #93938D",
"f c #93938F",
"g c #939390",
"h c gray58",
"j c #9A9A9A",
"k c #A6A59F",
"l c #A6A5A0",
"z c #A4A4A4",
"x c #AAAAAA",
"c c #AFAFAF",
"v c gray69",
"b c #B1B1B1",
"n c #B4B4B4",
"m c gray73",
"M c gray74",
"N c #C9C180",
"B c #D0C782",
"V c #D2C982",
"C c #D5CC82",
"Z c #D9CF83",
"A c #DAD084",
"S c #DDD384",
"D c #E7DC86",
"F c #EFE387",
"G c #F6E989",
"H c #F7EA89",
"J c #F9EC89",
"K c #FCEF8A",
"L c #FFF28B",
"P c gray76",
"I c gray78",
"U c #CACACA",
"Y c gray80",
"T c #CDCDCD",
"R c gray81",
"E c LightGray",
"W c gray84",
"Q c #DADADA",
"! c gray86",
"~ c gray89",
"^ c #E6E6E6",
"/ c #ECECEC",
"( c #EFEFEF",
") c gray94",
"_ c #F4F4F4",
"` c #F6F6F6",
"' c #F9F9F9",
"] c gray99",
"[ c white",
/* pixels */
"                                                  ",
" [[[[[[[[[[[[[[[[[[[[[[[[[[[[[[[[[[[[[[[[[[[[[[[[ ",
" [[[[[[[[[[[[[[[[[[[[[[[[[[[[[[[[[[[[[[[[[[[[[[[[ ",
" [[[[[[[[[[[[[[[[[[[[[[[[[[[[[[[[[[[[[[[[[[[[[[[[ ",
" [[[[[[[[[[[[[[[[[[[[[[[[[[[[[[[[[[[[[[[[[[[[[[[[ ",
" [[[[[[[[[[[[[[[[[[[[[[[[[[[[[[[[[[[[[[[[[[[[[[[[ ",
" [[[[[[[[[[[[[[[[[[[[[[[[[[[[[[[[[[[[[[[[[[[[[[[[ ",
" [[[[[[[[[[[[[[[[[[[[[[[[[[[[[[[[[[[[[[[[[[[[[[[[ ",
" [[[[[[[[[[[[[[[[[[[[[[[[[[[[[[[[[[[[[[[[[[[[[[[[ ",
" [[[[[[[[[[[[[[[[[[[[[[[[[[[[[[[[[[[[[[[[[[[[[[[[ ",
" [[[[[[[[[[[[[[[[[[[[[[[[[[[[[[[[[[[[[[[[[[[[[[[[ ",
" [[[[[[[[[[[`k                      z`[[[[[[[[[[[ ",
" [[[[[[[[[[[g3GLLLLLLLLLLLLLLLLLLLLG3f[[[[[[[[[[[ ",
" [[[[[[[[[[`@LLLLLLLLLLLLLLLLLLLLLLLL.`[[[[[[[[[[ ",
" [[[[[[[[[[` LLLLLLLLLLLLLLLLLLLLLLLL [[[[[[[[[[[ ",
" [[[[[[[[[[[fNLLLLLLLLLLLLLLLLLLLLLLNg[[[[[[[[[[[ ",
" [[[[[[[[[[[!;LLLLLLLLLLLLLLLLLLLLLL&![[[[[[[[[[[ ",
" [[[[[[[[[[[[fNLLLLLLLLLLLLLLLLLLLLNf[[[[[[[[[[[[ ",
" [[[[[['[[[[[!;LLLLLA4DLe4KLLLLLLLL&![[[[[[[[[[[[ ",
" [[[^j#  h`[[[gNLLLL0 CL, KLLLLLLLNf[[[[[[['/`[[[ ",
" [[! #bIMx`[[[!&LLLLq CL, GLLLLLLL&![[[[[[[W P[[[ ",
" [[u ^[[[[[[[nr *SLL0 CL, KLJ5%O,0f[[nrouWE$ #u![ ",
" [) p[[[[[[[x gx  DL0 CL, KL1 25. ![z $czI~j fx/[ ",
" [! j[[[[[[/ h[[a 1L0 CL, GF 2LL> ~/ p[[[[[W P[[[ ",
" [! h[[[[[[E m[[! =L0 CL, JV <88. EE b[[[[[W P[[[ ",
" [/ u[[[[[[I U[[[ OL0 CL, Ke %-%osEI I[[[[[W P[[[ ",
" [[# ^[[[[[! m[[/ .L0 CL, GA 8L&![[! n[[[[[W P[[[ ",
" [[M r!')T/`#r`'b tN0 CL, JHOO6f[!``##E''^[~ v[[[ ",
" [['x     ~[Too# j!+0 CL, KLNX oo )[T  o b[[r .Y[ ",
" [[[[~IbP^[[[/IM![[f8NFLZeKLLwymT/[[[/ImT'[[`UI_[ ",
" [[[[[[[[[[[[[[[[[[!&LLLLLLLL&![[[[[[[[[[[[[[[[[[ ",
" [[[[[[[[[[[[[[[[[[[fNLLLLLLNf[[[[[[[[[[[[[[[[[[[ ",
" [[[[[[[[[[[[[[[[[[[!&LLLLLL&![[[[[[[[[[[[[[[[[[[ ",
" [[[[[[[[[[[[[[[[[[[[fNLLLLNf[[[[[[[[[[[[[[[[[[[[ ",
" [[[[[[[[[[[[[[[[[[[[!&LLLL&![[[[[[[[[[[[[[[[[[[[ ",
" [[[[[[[[[[[[[[[[[[[[[f7LLqf[[[[[[[[[[[[[[[[[[[[[ ",
" [[[[[[[[[[[[[[[[[[[[[/i;:i/[[[[[[[[[[[[[[[[[[[[[ ",
" [[[[[[[[[[[[[[[[[[[[[[[!![[[[[[[[[[[[[[[[[[[[[[[ ",
" [[[[[[[[[[[[[[[[[[[[[[[[[[[[[[[[[[[[[[[[[[[[[[[[ ",
" [[[[[[[[[[[[[[[[[[[[[[[[[[[[[[[[[[[[[[[[[[[[[[[[ ",
" [[[[[[[[[[[[[[[[[[[[[[[[[[[[[[[[[[[[[[[[[[[[[[[[ ",
" [[[[[[[[[[[[[[[[[[[[[[[[[[[[[[[[[[[[[[[[[[[[[[[[ ",
" [[[[[[[[[[[[[[[[[[[[[[[[[[[[[[[[[[[[[[[[[[[[[[[[ ",
" [[[[[[[[[[[[[[[[[[[[[[[[[[[[[[[[[[[[[[[[[[[[[[[[ ",
" [[[[[[[[[[[[[[[[[[[[[[[[[[[[[[[[[[[[[[[[[[[[[[[[ ",
" [[[[[[[[[[[[[[[[[[[[[[[[[[[[[[[[[[[[[[[[[[[[[[[[ ",
" [[[[[[[[[[[[[[[[[[[[[[[[[[[[[[[[[[[[[[[[[[[[[[[[ ",
" [[[[[[[[[[[[[[[[[[[[[[[[[[[[[[[[[[[[[[[[[[[[[[[[ ",
" [[[[[[[[[[[[[[[[[[[[[[[[[[[[[[[[[[[[[[[[[[[[[[[[ ",
"                                                  "
};
