/* XPM */
static char *c8a3482511594051f1f4a1db1bb97964zOg9hLVIXWDfO7vB[] = {
/* columns rows colors chars-per-pixel */
"52 50 225 2 ",
"   c None",
".  c #211928",
"X  c #3F2832",
"o  c #382630",
"O  c #2A3839",
"+  c #3C3539",
"@  c #2E232D",
"#  c #432A32",
"$  c #4E2F34",
"%  c #48353A",
"&  c #533134",
"*  c #5B3435",
"=  c #563C35",
"-  c #503D39",
";  c #603636",
":  c #653C35",
">  c #6D3C38",
",  c #6A3A37",
"<  c #743F39",
"1  c #594E34",
"2  c #6E4932",
"3  c #6B4538",
"4  c #7B4938",
"5  c #6E573D",
"6  c #665C39",
"7  c #705136",
"8  c #446C3B",
"9  c #6E633B",
"0  c #38384B",
"q  c #433B4B",
"w  c #385D4B",
"e  c #354947",
"r  c #3E6750",
"t  c #2B4C72",
"y  c #574246",
"u  c #4B4F53",
"i  c #6C5849",
"p  c #605950",
"a  c #4C7756",
"s  c #766F48",
"d  c #6F5D65",
"f  c #5B6778",
"g  c #6F727C",
"h  c #854C38",
"j  c #8D5338",
"k  c #83563C",
"l  c #945937",
"z  c #9B5F37",
"x  c #826F3C",
"c  c #946835",
"v  c #88763D",
"b  c #A66837",
"n  c #947E46",
"m  c #8E6642",
"M  c #836262",
"N  c #59865A",
"B  c #538C5E",
"V  c #7E884A",
"C  c #679B5D",
"Z  c #7A9458",
"A  c #6DA35E",
"S  c #78A95F",
"D  c #78A242",
"F  c #4D8D62",
"G  c #4F9165",
"H  c #519366",
"J  c #5C9563",
"K  c #519668",
"L  c #559C6D",
"P  c #5A9E6B",
"I  c #5D9F67",
"U  c #559768",
"Y  c #649865",
"T  c #749F62",
"R  c #5DA169",
"E  c #5FA173",
"W  c #66A567",
"Q  c #6AA765",
"!  c #6DA965",
"~  c #61A268",
"^  c #6CA56C",
"/  c #74A264",
"(  c #72AC63",
")  c #74AA6B",
"_  c #75A46A",
"`  c #65A375",
"'  c #73A773",
"]  c #73A97A",
"[  c #73AA73",
"{  c #79B062",
"}  c #AA8237",
"|  c #C38533",
" . c #CA8734",
".. c #D28B35",
"X. c #D88F35",
"o. c #C99337",
"O. c #DB9335",
"+. c #E49934",
"@. c #E89D34",
"#. c #ECAD3A",
"$. c #F4A634",
"%. c #FEBC3F",
"&. c #EBB13E",
"*. c #D5AA38",
"=. c #998447",
"-. c #868D57",
";. c #8C8852",
":. c #AA934C",
">. c #B9934D",
",. c #BD9A4E",
"<. c #AA9451",
"1. c #B88F56",
"2. c #B7AD52",
"3. c #9F9D78",
"4. c #AA9669",
"5. c #B99768",
"6. c #B99978",
"7. c #AA9A78",
"8. c #89B36A",
"9. c #94B869",
"0. c #94BB7B",
"q. c #86B171",
"w. c #ABA379",
"e. c #C19D55",
"r. c #CA9E4A",
"t. c #C4AB52",
"y. c #C4B553",
"u. c #D4B459",
"i. c #C3A848",
"p. c #E9B648",
"a. c #FEBF42",
"s. c #F9B744",
"d. c #EBB756",
"f. c #EABD59",
"g. c #FEBF55",
"h. c #C1A668",
"j. c #D0BD64",
"k. c #FEBF60",
"l. c #9CD265",
"z. c #DBC358",
"x. c #D6CA5B",
"c. c #D7D85D",
"v. c #CFC459",
"b. c #E2C957",
"n. c #E8D65D",
"m. c #FEDE5A",
"M. c #F0DD5F",
"N. c #EDC14A",
"B. c #EBE35E",
"V. c #DAC76C",
"C. c #EAC06E",
"Z. c #E7C864",
"A. c #FEC266",
"S. c #E9DF68",
"D. c #F8DF63",
"F. c #FED87F",
"G. c #E3D471",
"H. c #D6E16E",
"J. c #F4E261",
"K. c #FEE664",
"L. c #F9E369",
"P. c #FBE879",
"I. c #8A7B82",
"U. c #74AE88",
"Y. c #73AD84",
"T. c #7CB38F",
"R. c #6688A7",
"E. c #43A1AC",
"W. c #68DFD1",
"Q. c #8D898E",
"!. c #AA9B83",
"~. c #AD9D92",
"^. c #B99F9B",
"/. c #B99C8D",
"(. c #94BD88",
"). c #8ABB9A",
"_. c #88B994",
"`. c #94BF95",
"'. c #8AB888",
"]. c #B4B09D",
"[. c #808BA1",
"{. c #94A6B3",
"}. c #B5A8A1",
"|. c #B6ADB1",
" X c #B9B3A0",
".X c #C1A587",
"XX c #C5AA9A",
"oX c #C2B281",
"OX c #C2ABA8",
"+X c #C2BABD",
"@X c #97CD91",
"#X c #BFC188",
"$X c #94C1A3",
"%X c #8CC3A5",
"&X c #9EE3AC",
"*X c #D5C78E",
"=X c #DDD38D",
"-X c #E1D79A",
";X c #F2CC89",
":X c #E9E38A",
">X c #F9EA84",
",X c #F4E995",
"<X c #F2E998",
"1X c #D4D0B0",
"2X c #EBDCAD",
"3X c #F7EBA8",
"4X c #EAE6B7",
"5X c #F9F2B9",
"6X c #F7EAA3",
"7X c #B8D6C2",
"8X c #D4D1D4",
"9X c #CBE5D5",
"0X c #EBEDC5",
"qX c #F9F5CA",
"wX c #EBEDD5",
"eX c #FEEFD8",
"rX c #ECF1D9",
"tX c #F9F7D9",
"yX c #F6EDC9",
"uX c #E6E6E7",
"iX c #EAF3ED",
"pX c #ECF6E0",
"aX c #F4F9F6",
"sX c #F9F9F7",
"dX c #F4F7EC",
/* pixels */
"L L L L L L L L L L L L L L L L L L L K F F L L L L L L L L L L L L L L L L L L L L L L L L L L K F F   ",
"L L L L L L L L L L L L L L L L L L L H F F K L L L L L L L L L L L L L L L L L L L L L L L L L K F F   ",
"L L L P R ~ L L L L L L L L L L L L L L G K L L L L L L L L L L R R R L L L L L L L L L L L L L L K K   ",
"L L P W W ! L L L L L L L L L L L L L L L L L L L L L L L L L L ~ Q ! L L L L L L L L L L L L L L L L   ",
"L L ~ ( W Q L L L L L L L L L L L L L L L L L L L L L L L L L ~ ! ! ^ R L L L L L L L L L L L E L L L   ",
"L L R ( R R L L L L L L L L L L L L L L L L L L K F F K L L L E W ~ R R L L L L L L L L L L L L L L L   ",
"L L L R L L L L L L L L L L L L L L L L L L L L r O O w G L L L P L L L L L L L L L L L L L L L L L L   ",
"L L L L L L L L L L L L L L L L L L L L L L J N u q 0 e a F L L L L L L L L L L L L L L L L L L L L L   ",
"L L L L L L L L L L L L L L L L L L L L R R a @ g {.R.g 0 w L L I L L L L L L L L L L L L L L L L L L   ",
"L L L L L L L L L E T.%X).@X9.(.$X0.9.9.8.9.-.9 !.1X#X3.s V 9.9.9.9.0.`.$X$X(.9.`.).E L L L L L L L L   ",
"L L G L R L L L L E 7XaXaXyXL.3XdX,XB.J.B.J.M.M.L.L.L.J.M.S.D.M.M.J.:XtXaXaX3XP.0X9XU.L L L L L L L L   ",
"L F F F K L L L L E oX-XXX6.1.6.^.5.>.>.>.,.>.>.,.<.>.>.>.>.>.>.>.>.5./.^.^.6.,.;X*X[ L L L L L L L L   ",
"L F F G L L L L L ` j.O.j < > > > > > > > > > > > > > > > > > > > > > > > > > 4  .p.T K L L L L L L L   ",
"L K G K L L L L L Y.k.O.4 $ $ $ & $ $ $ $ $ $ $ $ $ $ $ $ $ $ $ $ $ $ $ $ $ $ : | d.T L L L L L L L L   ",
"L L L L L L L L L ] f.+.2 X X X X X X X X X X X # X X X X X # X X X X X # X X = | d.T L L L L L L L L   ",
"L L L L L L L L L ] C.r.2 # X X X X X X X X X X X X X X X X X X X X X X X X X = | d.T L L L L L L L L   ",
"L L L L L L L L L Y.f.O.3 X X X X X X X X X X X X X X X X X X X X X X X X X X = | d.T L L L L L L L L   ",
"R ( P L L L L L L ] f.O.2 X X X X X X X X X X X X X X X X X X X X X X X X X X * | p.T L L ~ ! R L L L   ",
"{ ( L L L L L L L _ p.+.h * * $ X X X X X X X X X X X X X X X X X X X # # * * >  .p.T L L ~ ! R P L L   ",
"A B L L L L L L L ' f.+.l < < * # # # # # # # # # # # # # # # # # # # # & > < h ..d.T L L R ( Q ! L L   ",
"F K L L L L L L L ] f.+.l < < < * ; ; ; ; ; ; ; ; ; ; ; * ; ; ; ; ; ; ; , < < h ..d.T L L I ~ ^ Q R L   ",
"L L L L L L L L L ' f.@.b j j j j j j j j j j j j j j j j j j j j j j j j j j c X.p.T L L L L ~ ~ P L   ",
"L L L L L L L L L / p.$.+.O.X.X.O.O.O.O.O.O.O.O.O.O.O.O.O.O.O.X.O.O.O.O.O.O.X.O.$.&.T L L L L L L L L   ",
"L L L L L L L L L / #.$.O.....................................................X.$.$.C P L L L L L L L   ",
"L L L L L L L L L T #.+.b h h h h h h h h h h j h h h h h h h h h h h h h h h l O.#.T L L L L L L L L   ",
"L L L L L L L L L _ p.p.z < < , * & * * * * M }.5.:.V T ~.6.>.k * * * * ; < < h r.N./ L L L L L L L L   ",
"L L L L L L L L L Y y.b.m < > * X % q % % % Q.sX6XB.l.l.tX5XK.=.% $ # # $ < < k u.z.) L L L L L L L L   ",
"L L L L L L L L L J 2.z.s & & # % I.|.|.{.E.$X,XP.K.c.H.,X>XK.*X}.1.c = # $ $ 3 y.v.) L L L L L L L L   ",
"L L L L L L L L L ^ j.C.6 # ; q q }.eXeX9XW.&XP.D.m.m.m.m.m.m.,XyXk.X.6 % o o - h.G.) P L L L L L K K   ",
"L L L L L L L L K _ 2X1Xu 2 | s t 4.k.k.C.z.-XtX;X%.%.%.%.%.a.g.k.s.*.D 8 . . %  X4XY.L L L L L K F H   ",
"L L L L L L L L L ' 2XuXQ.n s.w.R.h.s.a.N.a.F.qXF.a.a.a.a.a.a.a.N.%.b.l._ 6 p g 8XwXU.P L L L L K F F   ",
"L L L L R W L L K ' yXsXuX4XD.6XuX,Xm.D.m.m.K.P.K.m.D.m.m.m.m.m.m.K.>XqX4XZ.-XuXiXwXU.L L L L L L K K   ",
"L L R ^ W ! R L L [ 0XiX+X!.<.7.}.4.<.:.:.:.:.:.:.:.:.:.:.:.:.:.:.:.4.~.!.:.7.|.uXwXU.L L L L E L L L   ",
"L L R { W Q L L L ] yX8Xd # X # X # o X X X X # X X X X # # X X X X X X # # X q +XeXU.L L L L L L L L   ",
"L L R ( R L L L L ^ =X=Xi $ * * ; * * ; * * * * * * * * * * ; ; * * * * ; * * q oX-X[ L L L L L L L L   ",
"L L L R L L L L L I 2.x.i $ < < < < < < < < < < < < < < < < < < < < < < < < * - t.v.) R L L L L L L L   ",
"L L L L L L L L L Y 2.z.5 & < < < < < < < < < < < < < < < < < < < < < < < < * 1 t.v.) L L L L L L L L   ",
"L L L L L L L L L _ b.z.5 $ < < < < < < < < < < < < < < < < < < < < < < < < * = t.n.) L L L L L L L R   ",
"L L L L L L L L L ^ x.z.7 & > < < < < < < < < < < < < < < < < < < < < < < < * - t.c.) L L L L L L L L   ",
"L K G L L L L L L L -.=.n x < < < < < < < < < < < < < < < < < < < < < < < < k =.=.-.I L L L L L L L L   ",
"L F F G L L L L L K e % 2.i.4 2 3 4 < < < < < < < < < < < < < 3 < < 3 4 < 4 >.n.6 O F K L L L L L L L   ",
"K F F G L L L L L P s c v =.,.r.t./.OXOXOXOXOXOXOXOXOXOXOXOXOX}.XXh.h././.i.=.9 c x B L L L L L L L L   ",
"L K G L L L L L L I 2.o.1 s x.M.S.4XiXiXiXiXiXiXiXiXiXiXiXiXiXiXwX-X:XwX4XS.;.o } i.T L L L L L L L L   ",
"L L K L L L L L L P T Z a N 8.8.q.'.).).).).).).).).).).).).%X_._.0.0._.'.8.Y a Z S P L L L L L L L L   ",
"L L L L L L L L L L L L L L L L L L L L L L L L P L ~ Q R L L L L L L L L L L L L L L L L L L L L L L   ",
"L R L L L L L L L L L L L L L L R R L L L L L L L L W { R K R L L L L L L L L L L L L L L L Y L L L L   ",
"R ! L L L L L L L L L L L L L L Q ~ L L L L L L L L ~ { A R W R L L L L L L L L L L L L L R ! R L L L   ",
"{ W R L L L L L L L L L L L L L Q ~ R R L L L L L L R Y A A S R L L L L E L L L L L L L L R ! R R L L   ",
"A F K R L L L L L L L L L L L L W W ! R R L L L L L L G J A J K L L L L L L L L L L L L L ~ ( W Q R L   ",
"F K L R L L L L L L L L L L L L W R ! R L L L L L L L L G F G L L L L L L L L L L L L L L I W W Q L L   "
};
