/* XPM */
static char *_ebd9e3186104c24c6845dbb9e0d694cuVSYLcCLDZ4BeE0l[] = {
/* columns rows colors chars-per-pixel */
"52 50 130 2 ",
"   c None",
".  c #381F27",
"X  c #333132",
"o  c #462723",
"O  c #482823",
"+  c #552F29",
"@  c #45283B",
"#  c #492A3A",
"$  c #553036",
"%  c #593235",
"&  c #623732",
"*  c #663931",
"=  c #6B3C32",
"-  c #394137",
";  c #364A3D",
":  c #384B3C",
">  c #424634",
",  c #4E533F",
"<  c #6B4436",
"1  c #644A3A",
"2  c #734234",
"3  c #794635",
"4  c #7D4936",
"5  c #366445",
"6  c #386747",
"7  c #3A6548",
"8  c #3B6D4C",
"9  c #3D704E",
"0  c #3F7350",
"q  c #594941",
"w  c #525F4F",
"e  c #4C5B51",
"r  c #615843",
"t  c #6D5942",
"y  c #406F49",
"u  c #5D644B",
"i  c #5E6A4F",
"p  c #4B7647",
"a  c #427149",
"s  c #5C6E51",
"d  c #407652",
"f  c #437B56",
"g  c #487E55",
"h  c #457F58",
"j  c #5B7455",
"k  c #5D7F5A",
"l  c #737753",
"z  c #834D37",
"x  c #844E38",
"c  c #865139",
"v  c #8E553B",
"b  c #955C3E",
"n  c #806747",
"m  c #986041",
"M  c #A36945",
"N  c #A46E4A",
"B  c #AA754F",
"V  c #AD7F54",
"C  c #B57D52",
"Z  c #47825B",
"A  c #49855C",
"S  c #4A885F",
"D  c #558A56",
"F  c #5B8D54",
"G  c #5A925B",
"H  c #65855C",
"J  c #699955",
"K  c #669D5D",
"L  c #689E5C",
"P  c #6DA35E",
"I  c #77AC5F",
"U  c #79AD5E",
"Y  c #4D8D62",
"T  c #548D61",
"R  c #588962",
"E  c #4F9165",
"W  c #519367",
"Q  c #5C9366",
"!  c #5D9F67",
"~  c #549669",
"^  c #559C6D",
"/  c #5A9E6B",
"(  c #649C6C",
")  c #6C9D6B",
"_  c #709D6B",
"`  c #5BA06A",
"'  c #5CA069",
"]  c #5DA069",
"[  c #5EA169",
"{  c #5FA269",
"}  c #5DA06A",
"|  c #5EA169",
" . c #65A467",
".. c #67A567",
"X. c #67A666",
"o. c #65A567",
"O. c #68A766",
"+. c #69A766",
"@. c #6AA766",
"#. c #6AA765",
"$. c #6BA865",
"%. c #6BA965",
"&. c #6BA866",
"*. c #6EAA65",
"=. c #6FAA65",
"-. c #6DA965",
";. c #61A268",
":. c #60A268",
">. c #63A368",
",. c #62A368",
"<. c #74AB61",
"1. c #73AD63",
"2. c #76AE62",
"3. c #70AB64",
"4. c #72AC63",
"5. c #92845A",
"6. c #A3865A",
"7. c #A28A5B",
"8. c #AE8D5C",
"9. c #B58C5B",
"0. c #8B9967",
"q. c #909967",
"w. c #9A9E69",
"e. c #9F9F69",
"r. c #9F9F68",
"t. c #A09F68",
"y. c #A59E69",
"u. c #A2A068",
"i. c #C4925F",
"p. c #CB925D",
/* pixels */
"^ ^ ^ ^ ^ ^ ^ ^ ^ ^ ^ ^ ^ ^ ^ ^ ^ ^ ^ ~ Y E ~ ^ ^ ^ ^ ^ ^ ^ ^ ^ ^ ^ ^ ^ ^ ^ ^ ^ ^ ^ ^ ^ ^ ^ ^ ^ ^ Y Y   ",
"^ ^ ^ ^ ^ ^ ^ ^ ^ ^ ^ ^ ^ ^ ^ ^ ^ ^ ^ E Y E ~ ^ ^ ^ ^ ^ ^ ^ ^ ^ ^ / ^ ^ ^ ^ ^ ^ ^ ^ ^ ^ ^ ^ ^ ^ ~ Y Y   ",
"^ ^ ^ ^ / ,.^ ^ ^ ^ ^ ^ ^ ^ ^ ^ ^ ^ ^ ^ W ~ ^ ^ ^ ^ ^ ^ ^ ^ ^ ^ ^ / :./ ^ ^ ^ ^ ^ ^ ^ ^ ^ ^ ^ ^ ^ ~ ~   ",
"^ ^ / O.X.=./ ^ ^ ^ ^ ^ ^ ^ ^ ^ ^ ^ ^ ^ ^ ^ ^ ^ ^ ^ ^ ^ ^ ^ ^ ^ :.O.=./ ^ ^ ^ ^ ^ ^ ^ ^ ^ ^ ^ ^ ^ ^ ^   ",
"^ ^ :.2.X.&.^ ^ ^ ^ ^ ^ ^ ^ ^ ^ ^ ^ ^ ^ ^ ^ ^ ^ Q H k R ^ ^ ^ } =.O.O./ ^ ^ ^ ^ ^ ^ ^ ^ ^ ^ ^ ^ ^ ^ ^   ",
"^ ^ ' 3./ ' ^ ^ ^ ^ ^ ^ ^ ^ ^ ^ ^ ^ ^ ^ ^ ^ ^ ^ l c < i ^ ^ ^ } X.( / / ^ ^ ^ ^ ^ ^ ^ ^ ^ ^ ^ ^ ^ ^ ^   ",
"^ ^ ^ ' ^ ^ ^ ^ ^ _ w.e.t.e.t.t.e.e.e.e.e.e.t.t.8.C V 6.e.e.e.e.y.e.e.e.e.e.e.e.u.w.) ^ ^ ^ ^ ^ ^ ^ ^   ",
"^ ^ ^ ^ ^ ^ ^ / ( q.i.p.p.p.p.p.p.p.p.p.p.p.p.p.p.i.p.p.p.p.p.p.p.p.p.p.p.p.p.p.p.i.0.( ^ ^ ^ ^ ^ ^ ^   ",
"^ ^ ^ ^ ^ ^ ^ ( t.V b b b b b b b b b b b b b b b b b b b b b b b b b b b b b b b m 9.e./ ^ ^ ^ ^ ^ ^   ",
"^ ^ ^ ^ ^ ^ ^ ( 7.M v v v v v v v v v v v v v v v v v b v v v v v v v v v v v v v v N 5.Q ^ ^ ^ ^ ^ ^   ",
"^ ~ W ^ ^ ^ ^ Q n v v v v v 3 = c v v v v v v v v v v v v v v v v c = 3 v z = v v v 2 r ^ ^ ^ ^ ^ ^ ^   ",
"^ Y Y Y ^ ^ ^ Q n c v v v 4 * * = v v v b v v v v v v v v v v v v x * 3 b = = v v v 2 r Q ^ ^ ^ ^ ^ ^   ",
"~ E Y E ^ ^ ^ Q n x v v v = * = = v v v v v v v v v v v b v v v v c * 3 v = & v v v = r ^ ^ ^ ^ ^ ^ ^   ",
"^ ~ E ^ ^ ^ ^ Q n x v v c * = 3 * x v v v v v b v v v v v v v v v z * 3 v = * v v v 2 r ~ ^ ^ ^ ^ ^ ^   ",
"^ ^ ^ ^ ^ ^ ^ Q n c v v z * 3 4 & 3 v v v = * 3 c v v v 4 = = v v x * 4 v = * v v v 2 r ~ / ^ ^ ^ ^ ^   ",
"^ ^ ^ ^ ^ ^ ^ ~ n v v v 4 * z c 3 z v v z * 2 = = v c * = 2 * 3 v c & 4 v = & v v v 2 r ~ ^ ^ ^ ^ ^ ^   ",
"^ ^ ^ ^ ^ ^ ^ Q n v v v = * z 3 3 = z v 3 * v 3 * c x * c x * = v x * 3 v = * v v v = t ~ / ^ ^ ^ ^ ^   ",
"( 1./ ^ ^ ^ ^ Q n v v v 3 & z * & * = v = 2 v z * x v v 3 = = = v x * 3 v = * c v v = r ~ :.3./ ^ ^ ^   ",
"2.<.^ ^ ^ ^ ^ Q n v v v z & z 4 & 3 v v = = v z * x v = * z * = v x * 3 v c 3 v v v 3 r ^ ( 3.} / ^ ^   ",
"P T ^ ^ ^ ^ ^ Q n v v v x * 3 3 * v v v = = v = * v z & x z * * v x * 3 v c c v v v 2 r ~ :.3...=.^ ^   ",
"S ~ ^ ^ ^ ^ ^ R n x v v v = * * = v v v 4 * c = = v = * x = = = x x * z v = * c v v 2 r Q / ....&.` ^   ",
"^ ^ ^ ^ ^ ^ ^ ( n v v v v v = * z v v v c = * * v v c = * = c = z z * = v 3 * c v v 2 r ~ ^ ^ } ,.^ ^   ",
"^ ^ ^ ^ ^ ^ ^ R n v v v v v v c v v v v v v z v v v v x c v v v v v z c v v x v v c = r ^ ^ ^ ^ ^ ^ ^   ",
"^ ` ^ ^ ^ ^ ^ ( n v v v v v v v v v v v v v v v v v v v v v v v v v v v v v v v v v 3 r Q ^ ^ ^ ^ ^ ^   ",
"^ ^ ^ ^ ^ ^ ^ ~ t 3 3 x v v v v v v v v v v v v v v v v v v v v v v v v v v v v x 2 < q ~ ^ ^ ^ ^ ^ ^   ",
"^ ^ ^ ^ ^ ^ ^ ~ r q * 3 x x x x x x x x x x x x x x x x x x x x z z c z z c x x 3 = 1 i ~ ^ ^ ^ ^ ^ ^   ",
"^ ^ ^ ^ ^ ^ ^ ^ ~ s = * * = = = = = = = = = * = = * = = = = = = = = = = = = = = * < j ~ ^ ^ ^ ^ ^ ^ ^   ",
"^ ^ ^ ^ ^ ^ ^ ^ ^ R j s s s i i i i i i i i i s 1 $ $ q i i i i i s s s i i i i i s T ^ ^ ^ ^ ^ ^ ^ ^   ",
"^ ^ ^ ^ ^ ^ ^ ^ ^ ^ ^ ^ ^ ^ ^ ^ ^ ^ ^ ^ E ~ ^ ^ e # @ e ^ ^ ^ ^ ^ ^ ^ ^ ^ ^ ^ ^ ^ ^ ^ ^ ^ ^ ^ ^ ^ ~ ~   ",
"^ ^ ^ ^ ^ ^ ^ ^ ^ ^ ^ ^ ^ ^ ^ ^ ^ ^ ^ W Y Y ^ ^ w % # e ^ ^ ^ ^ ^ ^ ^ ^ ^ ^ ^ ^ ^ ^ ^ ^ ^ ^ ^ ^ ~ Y Y   ",
"^ ^ ^ ^ ^ ^ ^ ^ ^ ^ ^ ^ ^ ^ ^ ^ ^ ^ ^ E Y T ^ ^ u * $ w ^ ^ ^ ^ ^ ^ ^ ^ ^ ^ ^ ^ ^ ^ ^ ^ ^ ^ ^ ^ ~ Y Y   ",
"^ ^ ^ ^ }  .^ ^ ^ ^ ^ ^ ^ ^ ^ ^ ^ ^ ^ ~ E ~ ^ / u * * u ^ ^ ^ ^ ^ ' ,.^ ^ ^ ^ ^ ^ ^ ^ ^ ^ ^ ^ ^ ^ ~ ^   ",
"^ ^ } &. .=.^ ^ ^ ^ ^ ^ ^ ^ ^ ^ ` ^ Z Z Z Z Z Z , + + , Z Z Z A D F F S ^ ^ ^ ^ ^ ^ ^ ^ ^ ^ ^ ^ ^ ^ ^   ",
"^ ^ :.2.X.=.^ ^ ^ ^ ^ ^ ^ W W W ~ S 9 8 8 8 8 8 - O O > 8 8 8 a p p p Z W W W W ~ ^ ^ ^ ^ ^ ^ ^ ^ ^ ^   ",
"^ ^ :.4.^ / ^ ^ ^ ^ ^ ^ ~ h 0 0 0 0 8 8 8 8 8 8 > O O > 8 8 8 9 p a y a d d d d S ^ ^ ^ ^ ^ ^ ^ ^ ^ ^   ",
"^ ^ ^ / ^ ^ ^ ^ ^ ~ Y S Z 0 8 8 8 8 8 8 8 8 8 8 > O O > 8 8 8 8 8 8 8 8 8 8 9 8 0 Y S Y ^ ^ ^ ^ ^ ^ ^   ",
"^ ^ ^ ^ ^ ^ ^ ^ ^ Y 0 8 8 8 8 8 8 8 8 8 8 8 a p > O o > 8 8 8 8 8 8 8 8 8 8 8 8 8 8 8 h ^ ^ ^ ^ ^ ^ ^   ",
"^ ^ ^ ^ ^ ^ ^ ^ Y 0 8 8 8 8 8 8 8 8 8 8 8 8 p p > . . - 8 8 8 8 8 8 8 8 8 8 8 8 8 8 8 f ^ ^ ^ ^ ^ ^ `   ",
"^ ^ ^ ^ ^ ^ ^ ~ 0 8 8 8 8 8 8 8 9 8 8 8 8 8 9 p : X X : 8 8 8 8 8 8 8 8 8 8 8 8 8 8 8 f ^ ^ ^ ^ ^ ^ ^   ",
"^ ^ E ~ ^ ^ ^ ~ 0 8 8 8 8 8 8 8 8 8 8 8 8 8 8 8 6 7 7 7 8 8 8 7 6 8 8 8 8 8 8 8 8 8 8 h ^ ^ ^ ^ ^ ^ ^   ",
"^ E Y E ^ ^ ^ ^ Y 0 8 8 8 8 8 8 8 8 8 8 8 8 8 8 8 8 8 8 8 8 5 5 5 8 8 8 8 8 8 8 8 8 h Y ^ ^ ^ ^ ^ ^ ^   ",
"W Y Y E ^ ^ ^ ^ ^ W 0 0 0 8 8 8 8 8 8 8 8 8 8 8 8 8 8 8 8 8 5 5 5 6 8 8 8 8 8 8 0 0 Y ^ ^ ^ ^ ^ ^ ^ ^   ",
"^ ~ E ^ ^ ^ ^ ^ ^ ^ W W Y 0 8 8 8 8 8 8 8 8 8 8 8 8 8 8 8 8 8 5 6 8 8 8 8 8 8 8 h Y ^ ^ ^ ^ ^ ^ ^ ^ ^   ",
"^ ^ ^ ^ ^ ^ ^ ^ ^ ^ ^ ^ ~ Y 0 Z h f 9 8 8 8 8 8 8 8 8 8 8 8 8 8 8 8 8 0 h h Z Z Y ^ ^ ^ ^ ^ ^ ^ ^ ^ ^   ",
"^ ^ ^ ^ ^ ^ ^ ^ ^ ^ ^ ^ ^ ^ ^ ^ ^ E 9 9 8 8 8 8 8 8 p p 8 8 8 8 8 8 8 h ^ ^ ^ ^ ^ ^ ^ ^ ^ ^ ^ ^ ^ ^ ^   ",
"^ ^ ^ ^ ^ ^ ^ ^ ^ ^ ^ ^ ^ ^ ^ ^ ` ^ S S S S S S S S G J G A S S Y A Y Y ^ ^ ^ ^ ^ ^ ^ ^ ^ ^ / ^ ^ ^ ^   ",
"{ *.^ ^ ^ ^ ^ ^ ^ ^ ^ ^ ^ ^ ^ ^ O.{ ^ ^ ^ ^ ^ ^ ^ ^ { I o.! %.{ ^ ^ ^ ^ ^ ^ ^ ^ ^ ^ ^ ^ ^ ' &.^ ^ ^ ^   ",
"I &.^ ^ ^ ^ ^ ^ ^ ^ ^ ^ ^ ^ ^ ^ *.o.` ^ ^ ^ ^ ^ ^ ^ ` K K P I ' ^ ^ ^ ^ ^ ^ ^ ` ^ ^ ^ ^ ^ ,.3.' ` ^ ^   ",
"P E ^ ^ ^ ^ ^ ^ ^ ^ ^ ^ ^ ^ ^ ^ &.o.=.{ ^ ^ ^ ^ ^ ^ ^ ~ G P ! E ^ ^ ^ ^ ^ ^ ^ ^ ^ ^ ^ ^ ^ ' 3.&.&.^ ^   ",
"Y ~ ^ ^ ^ ^ ^ ^ ^ ^ ^ ^ ` ^ ^ ^ ,.' =.{ ^ ^ ^ ^ ^ ^ ^ ~ E S E ` ^ ^ ^ ^ ^ ^ ^ ^ ^ ^ ^ ^ ^ `  . .&.` ^   "
};
