/* XPM */
static char *b4705b8bccce4895fcafe3dfe4be9ccbZDKKdakITwk32TI5[] = {
/* columns rows colors chars-per-pixel */
"52 50 159 2 ",
"   c None",
".  c #5D965D",
"X  c #5C975F",
"o  c #60985D",
"O  c #659C5C",
"+  c #669C5C",
"@  c #669D5D",
"#  c #689E5C",
"$  c #6BA05C",
"%  c #6CA25D",
"&  c #6EA35D",
"*  c #6CA25E",
"=  c #77AC5F",
"-  c #79AD5E",
";  c #4B8960",
":  c #4B8B61",
">  c #4C8B61",
",  c #4C8C61",
"<  c #4D8D61",
"1  c #4C8C62",
"2  c #4C8D62",
"3  c #4D8D62",
"4  c #4C8E62",
"5  c #4D8E62",
"6  c #4D8E63",
"7  c #4E8E63",
"8  c #4E8F63",
"9  c #4D8F64",
"0  c #4E8F64",
"q  c #528F60",
"w  c #4D9064",
"e  c #4E9064",
"r  c #4E9065",
"t  c #4E9165",
"y  c #4F9165",
"u  c #4F9265",
"i  c #4F9266",
"p  c #549362",
"a  c #509165",
"s  c #509366",
"d  c #509367",
"f  c #539565",
"g  c #509467",
"h  c #519467",
"j  c #519567",
"k  c #529667",
"l  c #549666",
"z  c #5B9760",
"x  c #5C9E67",
"c  c #5E9F67",
"v  c #519568",
"b  c #519668",
"n  c #519768",
"m  c #519669",
"M  c #529668",
"N  c #539768",
"B  c #529669",
"V  c #529769",
"C  c #52976A",
"Z  c #52986A",
"A  c #53986A",
"S  c #53996A",
"D  c #53996B",
"F  c #539A6B",
"G  c #549A6B",
"H  c #559C6B",
"J  c #569C6B",
"K  c #579C6B",
"L  c #579D6B",
"P  c #549A6C",
"I  c #549B6C",
"U  c #559C6C",
"Y  c #559C6D",
"T  c #569C6C",
"R  c #579C6C",
"E  c #569D6C",
"W  c #579D6C",
"Q  c #5B9E69",
"!  c #589D6B",
"~  c #599D6B",
"^  c #589E6A",
"/  c #599E6A",
"(  c #589E6B",
")  c #599E6B",
"_  c #5A9E6A",
"`  c #5A9F6A",
"'  c #5B9F6A",
"]  c #5A9E6B",
"[  c #5A9F6B",
"{  c #5B9F6B",
"}  c #5C9F69",
"|  c #5C9F6A",
" . c #5BA06A",
".. c #5CA069",
"X. c #5DA069",
"o. c #5FA068",
"O. c #5EA069",
"+. c #5EA169",
"@. c #5FA169",
"#. c #5FA269",
"$. c #5CA06A",
"%. c #5DA06A",
"&. c #5DA16A",
"*. c #62A064",
"=. c #62A065",
"-. c #63A367",
";. c #64A467",
":. c #65A467",
">. c #65A567",
",. c #67A566",
"<. c #66A567",
"1. c #67A567",
"2. c #67A666",
"3. c #66A667",
"4. c #67A667",
"5. c #69A563",
"6. c #6FA761",
"7. c #69A665",
"8. c #69A765",
"9. c #68A666",
"0. c #68A766",
"q. c #69A766",
"w. c #6AA766",
"e. c #6AA865",
"r. c #6BA865",
"t. c #6BA965",
"y. c #6BA866",
"u. c #6CA965",
"i. c #6DA965",
"p. c #6EA965",
"a. c #6DAA65",
"s. c #6EAA64",
"d. c #6FAA64",
"f. c #6EAA65",
"g. c #6FAA65",
"h. c #6FAB65",
"j. c #60A168",
"k. c #60A268",
"l. c #61A268",
"z. c #61A368",
"x. c #60A269",
"c. c #62A368",
"v. c #63A368",
"b. c #62A468",
"n. c #63A468",
"m. c #64A468",
"M. c #72AA60",
"N. c #74AB61",
"B. c #73AC63",
"V. c #73AD63",
"C. c #76AD60",
"Z. c #76AE62",
"A. c #77AF62",
"S. c #70AA64",
"D. c #70AB64",
"F. c #71AB64",
"G. c #7BB161",
"H. c #7BB261",
"J. c #79B062",
/* pixels */
"Y Y Y Y Y Y Y Y Y Y Y Y Y Y Y Y Y Y I V ; 6 G Y Y Y Y Y Y Y Y Y Y Y Y Y Y Y Y Y Y Y Y Y Y Y Y Y f e 6   ",
"Y Y Y H Y H Y Y Y Y Y Y Y Y Y Y Y Y P 6 6 6 F I Y Y Y Y Y Y Y Y Y Y H Y Y Y Y Y Y Y Y Y Y Y Y G f 6 6   ",
"Y H Y Y | c.H Y Y Y Y Y Y Y Y Y Y Y I I t V Y Y Y Y Y Y Y Y Y Y Y | c.( Y Y Y Y Y Y Y Y Y Y Y Y P m i   ",
"Y Y _ 1.1.F.Y Y Y Y Y Y Y Y Y Y Y Y Y Y Y Y Y Y Y Y Y Y Y Y Y _ m.m.f...Y Y Y Y Y Y Y Y Y Y Y Y P Y Y   ",
"Y Y +.Z.1.y.Y Y Y Y Y Y Y Y Y Y Y Y Y Y Y Y Y Y Y Y Y Y Y Y Y +.F.y.9._ Y Y Y Y Y Y Y Y Y Y Y Y Y Y Y   ",
"Y Y +.F._ ..H Y Y Y Y Y Y Y Y Y Y Y Y Y Y Y Y Y Y Y Y Y Y Y Y ..9.c.+.Y Y Y Y Y Y Y Y Y Y Y Y Y Y Y Y   ",
"Y H H +.Y Y Y Y Y Y Y Y Y Y Y Y Y Y Y Y Y H Y | Y Y Y Y Y Y Y Y _ H H Y Y Y Y Y Y Y Y Y Y Y Y Y Y Y Y   ",
"Y Y Y Y Y Y Y Y Y Y Y Y Y Y Y Y Y Y Y Y Y Y -.9.-.Y Y Y Y Y Y Y Y Y Y Y Y Y Y Y Y Y Y Y Y Y Y Y Y Y Y   ",
"Y Y Y Y Y Y Y Y Y Y Y Y Y Y Y Y Y Y Y Y Y H y.y.1.H Y Y Y Y Y Y Y Y Y Y Y Y Y Y Y Y Y Y Y Y Y Y Y Y Y   ",
"Y Y Y Y Y Y Y Y Y Y Y Y Y Y Y Y Y Y Y Y Y I ..1.+.Y Y Y Y Y Y Y Y Y Y Y Y Y Y Y Y Y Y Y Y Y Y Y Y Y Y   ",
"Y V t F I Y Y Y Y Y Y Y Y Y Y Y Y Y Y Y Y H Y _ Y Y Y Y Y Y F t F F Y Y Y Y Y Y Y Y Y Y Y Y Y Y Y Y Y   ",
"F 6 6 6 I Y Y Y Y Y Y Y Y Y Y Y Y Y Y Y Y Y Y Y Y Y Y Y Y G t 6 6 V F Y Y Y Y Y Y Y Y Y Y Y Y Y Y Y Y   ",
"F 0 ; t F I Y Y Y Y Y Y Y Y Y Y Y Y Y Y Y Y Y Y Y Y Y Y Y G s 6 e F F Y Y Y Y Y Y Y Y Y Y Y Y Y Y Y Y   ",
"F F V I I Y Y Y Y Y Y Y Y Y Y Y Y Y Y Y Y Y Y Y Y Y Y Y Y I V V F I F Y Y Y Y Y Y Y Y Y Y Y Y Y Y Y Y   ",
"I I I I Y Y Y Y Y Y Y Y Y Y Y Y Y Y Y Y Y Y Y Y Y Y Y H H Y P P I I Y Y Y Y Y Y Y Y Y Y Y Y Y Y Y Y Y   ",
"Y Y Y Y Y Y Y Y Y Y Y Y Y Y Y Y Y Y Y Y Y Y Y Y Y H z.y.H Y Y Y Y Y Y Y Y Y Y Y Y Y Y Y Y Y Y Y Y Y Y   ",
"H Y Y Y Y Y Y Y Y Y Y Y Y Y Y H H H Y Y Y Y Y Y Y H 1.G.1.H H H H Y Y Y Y Y Y Y Y Y Y Y Y H H Y Y Y Y   ",
"| B._ Y Y Y Y Y Y Y Y Y Y Y Y Y f.1.H Y Y Y Y Y Y H 1.G.9._ y.;.Y Y Y Y Y Y Y Y Y Y Y Y H +.h._ Y Y Y   ",
"- N.H Y Y Y Y Y Y Y Y Y Y Y Y H f.1...Y Y Y Y Y Y Y _ =.O % = +.G Y Y Y Y Y Y Y Y Y Y Y H -.h._ _ I Y   ",
"& q F Y Y Y Y Y Y Y Y Y Y Y Y Y f.1.D.#.Y Y Y Y Y Y P f . % z f Y Y Y Y Y Y Y Y Y Y Y Y I -.h.y.f.Y Y   ",
"; F I I Y Y Y Y Y Y Y Y Y Y Y H ;.#.f.#.Y Y Y Y Y Y Y F e ; f P Y Y Y Y Y Y Y Y Y Y Y Y Y +.1.1.y._ Y   ",
"Y Y Y Y Y Y Y Y Y Y Y Y Y Y Y Y Y H ;...Y Y Y Y Y Y Y Y Y Y Y Y Y Y Y Y Y Y Y Y Y Y Y Y Y Y H +.;.H Y   ",
"Y Y Y Y Y Y Y Y Y Y Y _ Y Y Y Y Y Y Y Y Y Y Y Y Y Y Y Y Y Y Y Y Y Y Y Y Y Y Y Y Y Y Y Y Y Y Y Y Y Y Y   ",
"Y Y Y Y Y Y Y Y Y Y _ c.| Y Y Y Y Y Y Y Y Y Y Y Y Y Y Y Y Y Y Y Y Y Y Y Y Y Y H 1.+.H Y Y Y Y Y Y Y Y   ",
"Y Y Y Y Y Y Y Y Y ( m.f.1.H Y Y Y Y Y Y Y Y Y Y Y Y Y Y Y Y Y Y Y Y Y Y Y Y Y +.f.9._ Y Y Y Y Y Y Y Y   ",
"Y Y Y Y Y Y Y Y Y ( c.m.c.( Y Y Y Y Y Y Y Y Y Y Y Y Y Y Y Y Y Y Y Y Y Y Y Y Y _ 9.m.( Y Y Y Y Y Y Y Y   ",
"Y Y Y Y Y Y Y Y Y Y Y _ Y Y Y Y Y Y Y Y Y Y Y Y Y Y Y Y Y Y Y Y Y Y Y Y Y Y Y Y | _ Y Y Y Y Y Y Y Y Y   ",
"Y Y Y Y Y Y Y Y Y Y Y Y Y Y Y Y Y Y Y Y Y Y Y Y Y Y Y Y Y Y Y Y Y Y Y Y Y Y Y Y Y Y Y Y Y Y Y Y Y Y Y   ",
"Y Y Y Y Y Y Y Y Y Y Y Y Y Y Y Y Y Y Y P t F Y Y Y Y Y Y Y Y Y Y Y Y Y Y Y Y Y Y Y Y Y Y Y Y Y Y G V V   ",
"Y Y Y Y Y Y Y Y Y Y Y Y Y Y Y Y Y Y Y t 4 w P Y Y Y Y Y Y Y Y Y Y Y Y Y Y Y Y Y Y Y Y Y Y Y Y I V 6 6   ",
"Y Y Y Y Y Y Y Y Y Y Y Y Y Y Y Y Y Y F t ; 0 F Y Y Y Y Y Y Y Y Y Y Y Y Y Y Y Y Y Y Y Y Y Y Y I I s 6 6   ",
"Y Y Y I +.m.Y Y Y Y Y Y Y Y Y Y Y Y I F d V P Y Y Y Y Y Y Y Y Y Y +.z._ Y Y Y Y Y Y Y Y Y Y I G G V V   ",
"Y H | y.1.f.Y Y Y Y Y Y Y Y Y Y Y Y Y H I I Y Y Y Y Y Y Y Y Y ( m.9.f.( Y Y Y Y Y Y Y Y Y Y Y Y H Y H   ",
"Y Y c.Z.1.F.H Y Y Y Y Y Y Y Y Y Y Y Y Y Y Y Y Y Y Y Y Y Y Y Y +.f.f.f.{ Y Y Y Y Y Y Y Y Y Y Y Y Y Y Y   ",
"Y Y +.D._ H Y Y Y Y Y Y Y Y Y Y Y Y Y Y Y Y Y I Y Y Y Y Y Y I +.9.c.( R Y Y Y Y Y Y Y Y Y Y Y Y Y Y Y   ",
"Y H H _ Y Y Y Y Y Y Y Y Y Y Y Y Y Y Y Y Y Y H _ Y Y Y Y Y Y Y Y _ ( Y I Y Y Y Y Y Y Y Y Y Y Y Y Y Y Y   ",
"Y Y Y Y Y Y Y Y Y Y Y Y Y Y Y Y Y Y Y Y H H -.r.+.I Y Y Y Y Y Y I Y Y Y Y Y Y Y Y Y Y Y Y Y Y Y Y Y H   ",
"Y Y Y P Y Y Y Y Y Y Y Y Y Y Y Y Y Y Y Y Y H s.1.y._ Y Y Y Y Y I Y Y Y Y Y Y Y Y Y Y Y Y Y Y Y Y Y Y Y   ",
"Y G I P Y Y Y Y Y Y Y Y Y Y Y Y Y Y Y Y Y H | f._ H Y Y Y Y F F I I Y Y Y Y Y Y Y Y Y Y Y Y Y Y Y Y Y   ",
"G F f P Y Y Y Y Y Y Y Y Y Y Y Y Y Y Y Y Y Y Y H Y Y Y Y Y Y F V V I I Y Y Y Y Y Y Y Y Y Y Y Y Y Y Y Y   ",
"F e ; t F Y Y Y Y Y Y Y Y Y Y Y Y Y Y Y Y Y Y Y Y Y Y Y I I s 6 6 V Y Y Y Y Y Y Y Y Y Y Y Y Y Y Y Y Y   ",
"F 6 6 t F Y Y Y Y Y Y Y Y Y Y Y Y Y Y Y Y Y Y Y Y Y Y Y Y I t ; e F F Y Y Y Y Y Y Y Y Y Y Y Y Y Y Y Y   ",
"G F t F H Y Y Y Y Y Y Y Y Y Y Y Y Y Y Y Y Y Y Y Y Y Y Y Y I G s V G G Y Y Y Y Y Y Y Y Y Y Y Y Y Y Y Y   ",
"I F F Y Y Y Y Y Y Y Y Y Y Y Y Y Y Y Y Y Y Y Y Y Y Y I _ Y Y I I F Y Y Y Y Y Y Y Y Y Y Y Y Y Y Y Y Y Y   ",
"Y Y Y Y Y Y Y Y Y Y Y Y Y Y Y Y Y Y Y Y Y Y Y Y Y H c.1.H G Y Y Y Y Y Y Y Y Y Y Y Y Y Y Y I Y Y Y Y Y   ",
"Y | Y Y Y Y Y Y Y Y Y Y Y Y Y Y ( _ Y Y Y Y Y Y Y Y 1.G.1.G _ ( Y Y Y Y Y Y Y Y Y Y Y Y Y ( _ Y Y Y Y   ",
"-.f.H Y Y Y Y Y Y Y Y Y Y Y Y H 9.z.Y Y Y Y Y Y Y H z.A.5.x 9.c.H Y Y Y Y Y Y Y Y Y Y Y I +.f.Y Y Y Y   ",
"= 6._ Y Y Y Y Y Y Y Y Y Y Y Y Y f.1.+._ Y Y Y Y Y G H -.+ & D.| Y Y Y Y Y Y Y Y Y Y Y Y Y c.F.+...Y Y   ",
"+ p G Y Y Y Y Y Y Y Y Y Y Y Y H f.1.f.-.I I Y Y Y Y I l . + z V H Y Y Y Y Y Y Y Y Y Y Y Y -.h.1.y.H Y   ",
"6 F G G Y Y Y Y Y Y Y Y Y Y Y Y -.+.f.-.I I Y Y Y Y I I q 6 V P P Y Y Y Y Y Y Y Y Y Y Y Y _ 1.1.y...Y   "
};
