/* XPM */
static char *e94d7aecaa9849baccc0cd0c04259318H1O8y5IEzDKb8JgM[] = {
/* columns rows colors chars-per-pixel */
"52 50 127 2 ",
"   c None",
".  c #381F27",
"X  c #333132",
"o  c #462723",
"O  c #482823",
"+  c #552F29",
"@  c #45283B",
"#  c #492A3A",
"$  c #553036",
"%  c #593235",
"&  c #623732",
"*  c #663931",
"=  c #6B3C32",
"-  c #703F32",
";  c #394137",
":  c #364A3D",
">  c #384B3C",
",  c #424634",
"<  c #4E533F",
"1  c #6B4436",
"2  c #644A3A",
"3  c #734234",
"4  c #794635",
"5  c #7E4A36",
"6  c #366445",
"7  c #386747",
"8  c #3A6548",
"9  c #3B6D4C",
"0  c #3D704E",
"q  c #3F7350",
"w  c #594941",
"e  c #525F4F",
"r  c #4C5B51",
"t  c #615843",
"y  c #6D5942",
"u  c #406F49",
"i  c #5D644B",
"p  c #5E6A4F",
"a  c #4B7647",
"s  c #427149",
"d  c #5C6E51",
"f  c #407652",
"g  c #437B56",
"h  c #487E55",
"j  c #457F58",
"k  c #5B7455",
"l  c #5D7F5A",
"z  c #737753",
"x  c #824D37",
"c  c #844E38",
"v  c #865139",
"b  c #8E553B",
"n  c #955C3E",
"m  c #806747",
"M  c #986041",
"N  c #A36945",
"B  c #A46E4A",
"V  c #AA754F",
"C  c #AD7F54",
"Z  c #B57D52",
"A  c #47825B",
"S  c #49855C",
"D  c #4A885F",
"F  c #558A56",
"G  c #5B8D54",
"H  c #5A925B",
"J  c #65855C",
"K  c #699955",
"L  c #669D5D",
"P  c #689E5C",
"I  c #6DA35E",
"U  c #77AC5F",
"Y  c #79AD5E",
"T  c #4D8D62",
"R  c #548D61",
"E  c #588962",
"W  c #4F9165",
"Q  c #519367",
"!  c #5C9366",
"~  c #5D9F67",
"^  c #549669",
"/  c #559C6D",
"(  c #5A9E6B",
")  c #649C6C",
"_  c #6C9D6B",
"`  c #709D6B",
"'  c #5DA169",
"]  c #67A666",
"[  c #66A567",
"{  c #65A566",
"}  c #68A766",
"|  c #69A766",
" . c #6AA766",
".. c #6AA765",
"X. c #6BA865",
"o. c #6BA965",
"O. c #6BA866",
"+. c #6EAA65",
"@. c #6FAA65",
"#. c #6DA965",
"$. c #61A268",
"%. c #60A268",
"&. c #63A368",
"*. c #63A468",
"=. c #64A468",
"-. c #61A268",
";. c #74AB61",
":. c #73AD63",
">. c #76AE62",
",. c #70AB64",
"<. c #72AC63",
"1. c #92845A",
"2. c #A3865A",
"3. c #A28A5B",
"4. c #AE8D5C",
"5. c #B58C5B",
"6. c #8B9967",
"7. c #909967",
"8. c #9A9E69",
"9. c #9F9F68",
"0. c #9F9F69",
"q. c #9F9E68",
"w. c #A09F68",
"e. c #A59E69",
"r. c #A2A068",
"t. c #C4925F",
"y. c #CB925D",
/* pixels */
"/ / / / / / / / / / / / / / / / / / / / T T / / / / / / / / / / / / / / / ( / / / / / / / / / / / W T   ",
"/ / / / / / / / / / / / / / / / / / / W T T / / / / / / / / / / / / / / / / / / / / / / / / / / Q W W   ",
"/ / / / ~ -./ / / / / / / / / / / / / / W / / / / / / / / / / / / ( %.( / / / / / / / / / / / / / Q Q   ",
"/ / ( } =.@.( / / / / / / / / / / / / / / / / / / / / / / / / / *. .O.' / / / / / / / / / / / / / / /   ",
"/ / ' >.{ O./ / / / / / / / / / / / / / / / / / ! J l E / / / ( O.O.O.( / / / / / / / / / / / / / / /   ",
"/ / ' @.' ' / / / / / / / / / / / / / / / / / / z v 1 d / / / ( =.) ' / / / / ^ / / / / / / / / / / /   ",
"/ / ( ' / / / / / ` 8.0.w.w.w.w.0.0.0.0.0.0.0.w.4.Z V 2.0.e.w.w.e.w.0.0.0.0.e.8.r.8._ / / / / / / / /   ",
"/ / / / / / / / ) 7.t.y.y.y.y.y.y.y.y.y.y.y.y.y.y.y.y.y.y.y.y.y.y.y.y.y.y.y.y.y.y.t.6.) / / / / / / /   ",
"/ / / / / / / ~ e.C n n n n n n n n n n n n n M n n n n n n n n M M M n n n M M M M 5.e./ / / / / / /   ",
"/ / / / / / / ) 2.N b b n b b b b b b b b b b b b b b b b b b b b b b b b b b b b b B 1.( / / / / / /   ",
"/ ^ Q / / / / ! m b b b b b b b b b b b b b b b b b b n b b b b b b b b b b b b b b - t ^ / / / / / /   ",
"/ T T T / / / ! m v b b b b b b n b b n b b b b b b b b n b b b b b b b b b 4 x b b - t / / / / / / /   ",
"^ W T W / / / ! m c b b b b b b b b 4 c b b b b b b b b b b b b b b 4 v b b = - b b - t ! / / / / / /   ",
"/ / W / / / / ! m c b b b b b b b b * 4 b b b b b b b b b b b b b b * 4 b b = 3 b b - t / / / / / / /   ",
"/ / / / / / / ! m b b b c = 4 b b v * * * b c 4 - c b b 3 c 3 * c v & = = b = - b b - t ! / / / / / /   ",
"/ / / / / / / Q m b b b * - * b 4 * * 4 c b * - - * v b * = * c 4 & = 3 c b = - b b 4 t / / / / / / /   ",
"/ / / / / / / ! m b b v = - = c b x & x b b 4 c - = x b * * x b v c * x b b = 3 b b - t ^ / / / / / /   ",
") <./ / / / / ! m b b b = = x b b b * 4 b b x = - * x b * - b b b b * 4 b b - - b b 3 t ^ %.<.( / / /   ",
">.;./ / / / / ! m b b b b = * c b v * x b v * x - * x b * x b b b b * x b b b b b b 3 t ^ =.@./ ( / /   ",
"I R / / / / / ! m b b 4 = b * 5 b b * 4 b x * c - * 4 b * x b b b v * 5 b b - 3 b b 3 t ^ =.@.| @./ /   ",
"T ^ / / / / / ! m c b b = = = b b b * - b b * * x 4 - b * - b b b b = - b b - = b b 3 t ^ ( | | O.' /   ",
"/ / / / / / / ! m b b b b x v b b b v c b b c b b b b b c b b b b b c c b b b v b b 3 t ^ / / %.%./ /   ",
"/ / / / / / / ) m b b b b n b b b b b b b b b b b b b b n b b b b b b b b b b n b b - t ^ / / / / / /   ",
"/ / / / / / / J m b b b b b b b b b b b b b b b b b b b b b b b b b b n b b b b b b - t ! / / / / / /   ",
"/ / / / / / / ! y - x v b b b b b b b b b b b b b b b b b b b b b b b b b b b b c 3 * t ^ / / / / / /   ",
"/ / / / / / / ^ i w * - v v c c v c v c v c c c c c c c c c c c c c v c c v c c 4 * 2 p / / / / / / /   ",
"/ / / / / / / / ^ d * * = = = = = = = = = = * * - = = = = = - = = = = = = = = = * = k ^ / / / / / / /   ",
"/ / / / / / / / / E k p p p p p p p p p p p p p w $ $ w p p p p p p d d p p p p d d E / / / / / / / /   ",
"/ / / / / / / / / / / / / / / / / / / / ^ ^ / / r # @ r / / / / / / / / / / / / / / / / / / / / / / ^   ",
"/ / / / / / / / / / / / / / / / / / / Q T T / / i $ # r / / / / / / / / / / / / / / / / / / / / Q T T   ",
"/ / / / / / / / / / / / / / / / / / / W T T / / i * $ e / / / / / / / / / / / / / / / / / / / / Q T T   ",
"/ / / / ( =./ / / / / / / / / / / / / / W ^ / / i * * i / / / / / ' =./ / / / / / / / / / / / / / Q /   ",
"/ / ' O.} @./ / / / / / / / / / / ^ S A A A A A < + + < A A A S F G G F / / / / / / / / / / / / / / /   ",
"/ / %.>.=.@./ / / / / / / ^ Q W ^ D 0 0 9 9 9 9 , O O , 9 9 9 u a a a j Q Q Q Q ^ / / / / / / / / / /   ",
"/ / %.,.( / / / / / / / Q j q q f 0 0 9 9 9 9 9 , O O , 9 9 9 s a s u q f f f f T / / ^ / / / / / / /   ",
"/ / / ( / / / / / ^ T D A q 9 0 9 9 9 9 9 9 9 9 , O O , 9 9 9 9 9 9 9 9 9 9 9 9 q T T T / / / / / / /   ",
"/ / / / / / / / / T q 9 9 9 9 9 9 9 9 9 9 9 9 a , O O , 9 9 9 9 9 9 9 9 9 9 9 9 9 9 9 j / / / / / / '   ",
"/ / / / / / / ^ A q 9 9 9 9 9 9 9 9 9 0 9 9 a a ; . . ; 9 9 9 9 9 9 9 9 9 9 9 9 9 9 9 g / / / / / / /   ",
"/ / / / / / / ^ q 9 9 9 9 9 9 9 9 9 9 9 9 9 0 a > X X > 9 9 9 9 9 9 9 9 9 9 9 9 9 9 9 j / / / / / / /   ",
"/ / W / / / / Q q 9 9 q 9 9 9 9 9 9 9 9 9 9 9 9 7 7 7 8 9 9 9 7 9 9 9 9 9 9 9 9 9 9 q q ^ / / / / / /   ",
"/ T T W / / / / W j 9 9 9 9 9 9 9 9 9 9 9 9 9 9 9 9 9 9 9 9 6 6 6 9 9 9 9 9 9 9 9 9 q W / / / / / / /   ",
"/ T T T / / / / / T q q q 9 9 9 9 9 9 9 9 9 9 9 9 9 9 9 9 9 6 6 6 7 9 9 9 9 9 9 q q W / / / / / / / /   ",
"/ ^ W / / / / / / / Q W T 9 9 9 9 9 9 9 9 9 9 9 9 9 9 9 9 9 9 7 7 9 9 9 9 9 q 9 j W ^ / / / / / / / /   ",
"/ / / / / / / / / / / / Q T j A j g 0 9 9 9 9 9 9 9 9 9 9 9 9 9 9 9 9 q j A A A T / / / / / / / / / /   ",
"/ / / / / / / / / / / / / / / / / W 0 9 9 9 9 0 9 9 a a 9 9 9 9 9 9 9 j / / / / / / / / / / / / / / /   ",
"/ / / / / / / / / / / / / / / / ' ^ T D D D D S S D H K H S D D T A T T / / / / / / / / / / ( / / / /   ",
"' @./ / / / / / / / / / / / / / o.*./ / / / / / / / ' Y ] ~ O.' / / / / / / / / / / / / / ' O./ / / /   ",
"Y o./ / / / / / / / / / / / / / o.] ' / / / / / / / ~ ' L I U ' / / / / / / / / / / / / / *.@.' ' / /   ",
"P Q / / / / / / / / / / / / / / +.{ @.' / / / / / / / ^ H I H / / / / / / / / / / / / / / ' ,.O.O./ /   ",
"D ^ / ' / / / / / / / / / / / / *.' @.%./ / / / / / / ^ W T W / / / / / / / / / / / / / / ' =.=.O.( /   "
};
