/* XPM */
static char *result[] = {
/* columns rows colors chars-per-pixel */
"50 50 44 1 ",
"  c black",
". c #010101",
"X c #090909",
"o c #111111",
"O c #181818",
"+ c #191919",
"@ c #373737",
"# c #393939",
"$ c gray24",
"% c #464646",
"& c #515151",
"* c gray33",
"= c #585858",
"- c #5D5D5D",
"; c gray38",
": c #686868",
"> c #6A6A6A",
", c #6C6C6C",
"< c #6D6D6D",
"1 c #727272",
"2 c gray45",
"3 c #747474",
"4 c gray49",
"5 c #808080",
"6 c #818181",
"7 c #838383",
"8 c #848484",
"9 c gray52",
"0 c #868686",
"q c #909090",
"w c #959595",
"e c gray63",
"r c gray64",
"t c #B4B4B4",
"y c #D7D7D7",
"u c #D8D8D8",
"i c #E7E7E7",
"p c #EEEEEE",
"a c gray95",
"s c #F3F3F3",
"d c #F4F4F4",
"f c #F6F6F6",
"g c white",
"h c None",
/* pixels */
"hhhhhhhhhhhhhhhhhhhhhhhh2hhhhhhhhhhhhhhhhhhhhhhhhh",
"hhhhhhhhhhhhhhhhhhhhhhh188hhhhhhhhhhhhhhhhhhhhhhhh",
"hhhhhhhhhhhhhhhhhhhhhh18ff8hhhhhhhhhhhhhhhhhhhhhhh",
"hhhhhhhhhhhhhhhhhhhhh18fggf8hhhhhhhhhhhhhhhhhhhhhh",
"hhhhhhhhhhhhhhhhhhhh18fggggf8hhhhhhhhhhhhhhhhhhhhh",
"hhhhhhhhhhhhhhhhhhh18fggggggf8hhhhhhhhhhhhhhhhhhhh",
"hhhhhhhhhhhhhhhhhh18fggggggggf8hhhhhhhhhhhhhhhhhhh",
"hhhhhhhhhhhhhhhhh18fggggggggggf8hhhhhhhhhhhhhhhhhh",
"hhhhhhhhhhhhhhhh18fggggggggggggf8hhhhhhhhhhhhhhhhh",
"hhhhhhhhhhhhhhh18fggggggggggggggf8hhhhhhhhhhhhhhhh",
"hhhhhhhhhhhhhh18fggggggggggggggggf8hhhhhhhhhhhhhhh",
"hhhhhhhhhhhhh18fggggggggggggggggggf8hhhhhhhhhhhhhh",
"hhhhhhhhhhhh18fggggggggggggggggggggf8hhhhhhhhhhhhh",
"hhhhhhhhhhh18fggggggggggggggggggggggf8hhhhhhhhhhhh",
"hhhhhhhhhh38fggggggggggggggggggggggggf8hhhhhhhhhhh",
"hhhhhhhhh39fggggggggggggggggggggggggggf8hhhhhhhhhh",
"hhhhhhhh39fggggggggggggggggggggggggggggf8hhhhhhhhh",
"hhhhhhh39fggggggggggggggggggggggggggggggf8hhhhhhhh",
"hhhhhh39fggggggggggggggggggggggggggggggggf8hhhhhhh",
"hhhhh39fggggggggggggggggggggggggggggggggggf8hhhhhh",
"hhhh39fgggggggggggg< qg$+y    *ggggggggggggf8hhhhh",
"hhh39fggggggggggggg< Xu$+stte *gggggggggggggf8hhhh",
"hh39fgggggggggggggg< o@#+g6,; *ggggggggggggggf8hhh",
"h39fggggggggggggggg< r..Og4:- *gggggggggggggggf8hh",
"39fgggggggggggggggg< i> Of552 *ggggggggggggggggf8h",
"h0fggggggggggggggggw%pd&=a%%%%7ggggggggggggggggf0h",
"hh0fggggggggggggggggggggggggggggggggggggggggggf0hh",
"hhh0fggggggggggggggggggggggggggggggggggggggggf0hhh",
"hhhh0fggggggggggggggggggggggggggggggggggggggf0hhhh",
"hhhhh0fggggggggggggggggggggggggggggggggggggf9hhhhh",
"hhhhhh0fggggggggggggggggggggggggggggggggggf9hhhhhh",
"hhhhhhh0fggggggggggggggggggggggggggggggggf9hhhhhhh",
"hhhhhhhh0fggggggggggggggggggggggggggggggf9hhhhhhhh",
"hhhhhhhhh0fggggggggggggggggggggggggggggf9hhhhhhhhh",
"hhhhhhhhhh9fggggggggggggggggggggggggggf9hhhhhhhhhh",
"hhhhhhhhhhh9fggggggggggggggggggggggggf9hhhhhhhhhhh",
"hhhhhhhhhhhh9fggggggggggggggggggggggf9hhhhhhhhhhhh",
"hhhhhhhhhhhhh9fggggggggggggggggggggf9hhhhhhhhhhhhh",
"hhhhhhhhhhhhhh9fggggggggggggggggggf9hhhhhhhhhhhhhh",
"hhhhhhhhhhhhhhh9fggggggggggggggggf9hhhhhhhhhhhhhhh",
"hhhhhhhhhhhhhhhh9fggggggggggggggf9hhhhhhhhhhhhhhhh",
"hhhhhhhhhhhhhhhhh9fggggggggggggf9hhhhhhhhhhhhhhhhh",
"hhhhhhhhhhhhhhhhhh9fggggggggggf9hhhhhhhhhhhhhhhhhh",
"hhhhhhhhhhhhhhhhhhh9fggggggggf9hhhhhhhhhhhhhhhhhhh",
"hhhhhhhhhhhhhhhhhhhh9fggggggf9hhhhhhhhhhhhhhhhhhhh",
"hhhhhhhhhhhhhhhhhhhhh9fggggf9hhhhhhhhhhhhhhhhhhhhh",
"hhhhhhhhhhhhhhhhhhhhhh9fggf9hhhhhhhhhhhhhhhhhhhhhh",
"hhhhhhhhhhhhhhhhhhhhhhh9ff9hhhhhhhhhhhhhhhhhhhhhhh",
"hhhhhhhhhhhhhhhhhhhhhhhh99hhhhhhhhhhhhhhhhhhhhhhhh",
"hhhhhhhhhhhhhhhhhhhhhhhhhhhhhhhhhhhhhhhhhhhhhhhhhh"
};
