/* XPM */
static char *result[] = {
/* columns rows colors chars-per-pixel */
"50 50 42 1 ",
"  c black",
". c #020202",
"X c #060606",
"o c #191919",
"O c #1B1B1B",
"+ c gray15",
"@ c #313131",
"# c gray24",
"$ c gray27",
"% c #464646",
"& c gray31",
"* c gray32",
"= c #555555",
"- c #585858",
"; c #686868",
": c #6C6C6C",
"> c #6D6D6D",
", c #727272",
"< c gray45",
"1 c #747474",
"2 c #838383",
"3 c #848484",
"4 c gray52",
"5 c #868686",
"6 c gray54",
"7 c #8B8B8B",
"8 c #959595",
"9 c #9A9A9A",
"0 c gray66",
"q c #A9A9A9",
"w c gray69",
"e c gray74",
"r c #CDCDCD",
"t c #D7D7D7",
"y c gray91",
"u c #EEEEEE",
"i c gray95",
"p c #F3F3F3",
"a c gray96",
"s c #F6F6F6",
"d c white",
"f c None",
/* pixels */
"ffffffffffffffffffffffff<<ffffffffffffffffffffffff",
"fffffffffffffffffffffff,33,fffffffffffffffffffffff",
"ffffffffffffffffffffff,3ss3,ffffffffffffffffffffff",
"fffffffffffffffffffff,3sdds3,fffffffffffffffffffff",
"ffffffffffffffffffff,3sdddds3,ffffffffffffffffffff",
"fffffffffffffffffff,3sdddddds3,fffffffffffffffffff",
"ffffffffffffffffff,3sdddddddds3,ffffffffffffffffff",
"fffffffffffffffff,3sdddddddddds3,fffffffffffffffff",
"ffffffffffffffff,3sdddddddddddds3,ffffffffffffffff",
"fffffffffffffff,3sdddddddddddddds3,fffffffffffffff",
"ffffffffffffff,3sdddddddddddddddds3,ffffffffffffff",
"fffffffffffff,3sdddddddddddddddddds3,fffffffffffff",
"ffffffffffff,3sdddddddddddddddddddds3,ffffffffffff",
"fffffffffff,3sdddddddddddddddddddddds3,fffffffffff",
"ffffffffff,3sdddddddddddddddddddddddds3,ffffffffff",
"fffffffff,3sdddddddddddddddddddddddddds3,fffffffff",
"ffffffff,3sdddddddddddddddddddddddddddds3,ffffffff",
"fffffff13sdddddddddddddddddddddddddddddds3,fffffff",
"ffffff14sdddddddddddddddddddddddddddddddds3,ffffff",
"fffff14sdddddddddddddddddddddddddddddddddds3,fffff",
"ffff14sdddddddddddddddddddddddddddddddddddds3,ffff",
"fff14sddddddddddddd2$$$$i-*au$8ddddddddddddds3,fff",
"ff14sdddddddddddddd= &--po ,y >dddddddddddddds3,ff",
"f14sddddddddddddddd= 690do .w >ddddddddddddddds3,f",
"14sdddddddddddddddd= %&;do@+O >dddddddddddddddds3,",
"f5sdddddddddddddddd= qeeao#rX :dddddddddddddddds5f",
"ff5sddddddddddddddd=    to#d7 :ddddddddddddddds5ff",
"fff5sdddddddddddddddddddddddddddddddddddddddds5fff",
"ffff5sdddddddddddddddddddddddddddddddddddddds5ffff",
"fffff5sdddddddddddddddddddddddddddddddddddds4fffff",
"ffffff5sdddddddddddddddddddddddddddddddddds4ffffff",
"fffffff5sdddddddddddddddddddddddddddddddds4fffffff",
"ffffffff5sdddddddddddddddddddddddddddddds4ffffffff",
"fffffffff5sdddddddddddddddddddddddddddds4fffffffff",
"ffffffffff4sdddddddddddddddddddddddddds4ffffffffff",
"fffffffffff4sdddddddddddddddddddddddds4fffffffffff",
"ffffffffffff4sdddddddddddddddddddddds4ffffffffffff",
"fffffffffffff4sdddddddddddddddddddds4fffffffffffff",
"ffffffffffffff4sdddddddddddddddddds4ffffffffffffff",
"fffffffffffffff4sdddddddddddddddds4fffffffffffffff",
"ffffffffffffffff4sdddddddddddddds4ffffffffffffffff",
"fffffffffffffffff4sdddddddddddds4fffffffffffffffff",
"ffffffffffffffffff4sdddddddddds4ffffffffffffffffff",
"fffffffffffffffffff4sdddddddds4fffffffffffffffffff",
"ffffffffffffffffffff4sdddddds4ffffffffffffffffffff",
"fffffffffffffffffffff4sdddds4fffffffffffffffffffff",
"ffffffffffffffffffffff4sdds4ffffffffffffffffffffff",
"fffffffffffffffffffffff4ss4fffffffffffffffffffffff",
"ffffffffffffffffffffffff44ffffffffffffffffffffffff",
"ffffffffffffffffffffffffffffffffffffffffffffffffff"
};
